SplineFontDB: 3.0
FontName: SimonWriting
FullName: SimonWriting
FamilyName: SimonWriting
Weight: Regular
ItalicAngle: 0
UnderlinePosition: 0
UnderlineWidth: 0
Ascent: 819
Descent: 205
LayerCount: 2
Layer: 0 0 "Arri+AOgA-re"  1
Layer: 1 0 "Avant"  0
XUID: [1021 505 30205 15695]
OS2Version: 0
OS2_WeightWidthSlopeOnly: 0
OS2_UseTypoMetrics: 0
CreationTime: 1394705067
ModificationTime: 1394707006
PfmFamily: 17
TTFWeight: 400
TTFWidth: 5
LineGap: 92
VLineGap: 92
Panose: 2 0 5 3 0 0 0 0 0 0
OS2TypoAscent: 0
OS2TypoAOffset: 1
OS2TypoDescent: 0
OS2TypoDOffset: 1
OS2TypoLinegap: 92
OS2WinAscent: 0
OS2WinAOffset: 1
OS2WinDescent: 0
OS2WinDOffset: 1
HheadAscent: 0
HheadAOffset: 1
HheadDescent: 0
HheadDOffset: 1
OS2Vendor: 'PfEd'
DEI: 91125
Encoding: Custom
UnicodeInterp: none
NameList: Adobe Glyph List
DisplaySize: -24
AntiAlias: 1
FitToEm: 1
WinInfo: 0 56 14
BeginChars: 184 183

StartChar: aminuscule
Encoding: 2 97 1
Width: 676
LayerCount: 2
Fore
SplineSet
528 878 m 1
 605 821 646 688 646 555 c 0
 646 480 632 404 605 342 c 1
 493 291 397 225 235 225 c 0
 218 225 201 226 183 227 c 1
 183 235 182 243 182 251 c 0
 182 499 350 578 566 610 c 1
 566 622 l 2
 566 707 505 732 490 802 c 1
 470 807 452 809 437 809 c 0
 363 809 335 763 262 763 c 2
 260 763 l 1
 256 763 l 2
 159 763 141 620 81 620 c 0
 67 620 50 628 30 648 c 1
 96 821 276 878 515 878 c 2
 528 878 l 1
260 304 m 1
 271 303 281 303 291 303 c 0
 422 303 502 352 528 457 c 1
 477 457 493 524 451 533 c 1
 394 450 260 445 260 304 c 1
EndSplineSet
Validated: 1
EndChar

StartChar: b
Encoding: 3 98 2
Width: 759
LayerCount: 2
Fore
SplineSet
74 1145 m 1
 234 1102 192 859 204 669 c 1
 300 709 395 737 482 737 c 0
 573 737 655 706 723 626 c 1
 727 592 729 561 729 531 c 0
 729 330 630 230 429 230 c 0
 400 230 368 232 334 236 c 1
 337 402 637 271 637 440 c 2
 637 452 l 1
 623 553 593 639 507 669 c 1
 301 630 159 525 117 322 c 1
 52 340 30 386 30 441 c 0
 30 534 93 652 117 712 c 1
 83 798 71 907 71 1027 c 0
 71 1065 72 1105 74 1145 c 1
EndSplineSet
Validated: 1
EndChar

StartChar: cminuscule
Encoding: 4 99 3
Width: 843
LayerCount: 2
Fore
SplineSet
510 800 m 1
 344 743 185 806 120 583 c 1
 143 343 386 322 649 322 c 0
 703 322 758 323 813 323 c 1
 716 256 589 222 465 222 c 0
 260 222 65 314 34 497 c 0
 32 511 30 526 30 541 c 0
 30 692 149 880 317 880 c 0
 376 880 441 857 510 800 c 1
EndSplineSet
Validated: 1
EndChar

StartChar: dminuscule
Encoding: 5 100 4
Width: 776
LayerCount: 2
Fore
SplineSet
508 1182 m 1
 630 1163 646 1038 646 897 c 0
 646 846 644 793 644 742 c 0
 644 617 657 504 746 467 c 1
 740 436 704 421 670 421 c 0
 636 421 603 436 603 467 c 1
 461 382 397 221 171 221 c 0
 143 221 112 224 79 229 c 1
 45 296 30 359 30 419 c 0
 30 646 248 813 460 848 c 1
 460 893 458 940 458 985 c 0
 458 1067 465 1143 508 1182 c 1
127 324 m 1
 147 322 167 321 185 321 c 0
 421 321 487 491 508 705 c 1
 505 705 l 2
 253 705 127 579 127 327 c 2
 127 324 l 1
EndSplineSet
Validated: 1
EndChar

StartChar: e.minuscule
Encoding: 6 101 5
Width: 913
LayerCount: 2
Fore
SplineSet
713 855 m 1
 712 845 711 836 711 828 c 0
 711 779 733 752 770 741 c 1
 715 587 627 466 428 456 c 1
 435 358 522 339 627 339 c 0
 690 339 759 346 822 346 c 0
 843 346 864 345 883 343 c 1
 876 244 788 226 682 226 c 0
 620 226 552 232 490 232 c 0
 468 232 448 231 428 229 c 1
 363 410 30 323 30 569 c 2
 30 570 l 1
 70 546 103 535 132 535 c 0
 299 535 321 878 584 878 c 0
 622 878 664 871 713 855 c 1
371 570 m 1
 379 568 387 567 395 567 c 0
 478 567 582 656 582 707 c 0
 582 724 570 737 542 741 c 1
 536 639 370 695 370 586 c 0
 370 581 370 576 371 570 c 1
EndSplineSet
Validated: 1
EndChar

StartChar: f.minuscule
Encoding: 7 102 6
Width: 535
LayerCount: 2
Fore
SplineSet
435 1133 m 1
 464 1106 455 1040 502 1031 c 1
 504 1014 505 999 505 984 c 0
 505 875 451 821 367 795 c 1
 331 800 317 807 317 819 c 0
 317 851 418 910 418 1000 c 0
 418 1020 413 1042 401 1065 c 1
 377 1072 357 1075 340 1075 c 0
 245 1075 244 981 199 930 c 1
 196 898 195 867 195 838 c 0
 195 721 214 623 232 525 c 1
 255 458 335 448 367 390 c 1
 369 356 370 323 370 291 c 0
 370 143 348 17 300 -82 c 1
 134 10 277 412 30 424 c 1
 258 537 -13 1149 328 1149 c 0
 358 1149 394 1144 435 1133 c 1
300 188 m 1
 300 195 l 2
 300 219 301 244 301 268 c 0
 301 332 293 387 232 390 c 1
 263 331 244 222 300 188 c 1
EndSplineSet
Validated: 1
EndChar

StartChar: g
Encoding: 8 103 7
Width: 669
LayerCount: 2
Fore
SplineSet
523 383 m 1
 523 392 l 2
 523 448 484 464 484 520 c 0
 484 525 484 530 485 536 c 1
 475 557 466 565 457 565 c 0
 424 565 392 453 321 453 c 0
 312 453 302 455 292 459 c 1
 61 459 l 1
 40 507 30 557 30 605 c 0
 30 752 124 883 298 883 c 0
 309 883 320 882 331 881 c 1
 331 875 l 2
 331 714 92 790 92 628 c 0
 92 612 94 594 99 574 c 0
 109 532 176 549 176 498 c 1
 191 498 l 2
 341 498 347 640 446 690 c 1
 615 667 557 417 639 306 c 1
 639 37 l 1
 571 2 575 -104 485 -116 c 1
 477 -116 470 -117 463 -117 c 0
 316 -117 254 -31 215 76 c 1
 248 248 350 350 523 383 c 1
446 344 m 1
 411 244 285 233 285 97 c 0
 285 79 287 59 292 37 c 1
 362 22 387 -39 473 -39 c 2
 485 -39 l 1
 526 4 558 94 558 176 c 0
 558 256 528 328 446 344 c 1
EndSplineSet
Validated: 1
EndChar

StartChar: h.minuscule
Encoding: 9 104 8
Width: 609
LayerCount: 2
Fore
SplineSet
74 1180 m 1
 81 1181 87 1181 93 1181 c 0
 126 1181 143 1167 150 1142 c 1
 118 1020 110 876 110 722 c 0
 110 671 110 619 112 566 c 1
 243 596 242 758 404 758 c 2
 419 758 l 1
 534 705 579 581 579 413 c 0
 579 377 577 338 573 298 c 1
 427 319 516 573 419 643 c 1
 408 643 l 2
 156 643 279 268 74 221 c 1
 63 405 30 629 30 838 c 0
 30 960 41 1078 74 1180 c 1
EndSplineSet
Validated: 1
EndChar

StartChar: i.minuscule
Encoding: 10 105 9
Width: 212
LayerCount: 2
Fore
SplineSet
71 881 m 1
 153 881 l 1
 155 872 156 863 156 856 c 0
 156 794 88 802 30 798 c 1
 38 831 71 840 71 881 c 1
71 552 m 1
 123 503 182 397 182 310 c 0
 182 277 174 247 153 223 c 1
 74 267 53 324 53 394 c 0
 53 441 63 494 71 552 c 1
EndSplineSet
Validated: 1
EndChar

StartChar: j.minuscule
Encoding: 11 106 10
Width: 297
LayerCount: 2
Fore
SplineSet
213 928 m 1
 265 928 l 1
 266 922 267 918 267 913 c 0
 267 874 224 878 187 876 c 1
 192 897 213 902 213 928 c 1
161 668 m 1
 184 656 208 645 213 616 c 1
 209 590 207 564 207 537 c 0
 207 417 242 287 242 179 c 0
 242 101 223 35 161 -8 c 1
 59 4 30 89 30 204 c 0
 30 219 30 236 31 252 c 1
 83 208 72 103 135 70 c 1
 174 106 187 155 187 212 c 0
 187 321 139 455 139 564 c 0
 139 602 145 638 161 668 c 1
EndSplineSet
Validated: 1
EndChar

StartChar: k.minuscule
Encoding: 12 107 11
Width: 806
LayerCount: 2
Fore
SplineSet
607 88 m 0
 653 66 776 99 776 4 c 0
 776 -1 776 -7 775 -13 c 1
 454 -10 385 245 205 389 c 1
 196 391 188 392 181 392 c 0
 82 392 154 220 55 220 c 0
 50 220 43 221 37 222 c 1
 32 269 30 313 30 354 c 0
 30 592 102 756 104 992 c 1
 108 992 112 993 115 993 c 0
 165 993 178 955 178 905 c 0
 178 854 165 790 165 739 c 0
 165 721 167 705 171 691 c 1
 184 660 222 653 266 653 c 0
 303 653 344 658 381 658 c 0
 423 658 459 651 473 624 c 1
 478 596 481 572 481 549 c 0
 481 437 423 384 373 322 c 1
 401 222 506 202 574 155 c 0
 587 146 596 93 607 88 c 0
339 423 m 1
 358 441 369 466 369 490 c 0
 369 526 344 559 293 559 c 0
 286 559 280 558 272 557 c 1
 271 544 270 533 270 522 c 0
 270 466 290 430 339 423 c 1
EndSplineSet
Validated: 1
EndChar

StartChar: l.minuscule
Encoding: 13 108 12
Width: 231
LayerCount: 2
Fore
SplineSet
195 1140 m 1
 199 1108 201 1071 201 1029 c 0
 201 803 147 454 119 224 c 1
 117 224 l 2
 46 224 30 287 30 360 c 0
 30 419 40 484 42 529 c 0
 49 733 123 1002 195 1140 c 1
EndSplineSet
Validated: 1
EndChar

StartChar: m.minuscule
Encoding: 14 109 13
Width: 1040
LayerCount: 2
Fore
SplineSet
932 747 m 1
 955 640 1010 572 1010 435 c 0
 1010 383 1002 322 982 245 c 1
 847 272 986 642 830 642 c 0
 822 642 814 641 805 639 c 1
 802 640 799 640 796 640 c 0
 729 640 761 422 730 339 c 1
 631 437 615 640 516 738 c 1
 513 738 l 2
 420 738 417 540 396 381 c 1
 389 380 382 379 376 379 c 0
 259 379 339 626 241 649 c 1
 234 649 l 2
 119 649 157 308 75 236 c 1
 43 274 30 322 30 374 c 0
 30 514 123 685 182 780 c 1
 238 768 323 790 323 707 c 2
 323 700 l 1
 384 803 440 836 495 836 c 0
 597 836 697 723 829 723 c 0
 861 723 895 730 932 747 c 1
EndSplineSet
Validated: 1
EndChar

StartChar: n.minuscule
Encoding: 15 110 14
Width: 696
LayerCount: 2
Fore
SplineSet
666 297 m 1
 653 295 641 294 630 294 c 0
 429 294 564 630 401 668 c 1
 385 668 l 2
 142 668 264 306 30 297 c 1
 68 542 171 721 348 827 c 1
 589 785 612 525 666 297 c 1
EndSplineSet
Validated: 1
EndChar

StartChar: o.minuscule
Encoding: 16 111 15
Width: 626
LayerCount: 2
Fore
SplineSet
430 749 m 1
 511 660 573 559 573 454 c 0
 573 386 548 317 485 250 c 1
 443 245 404 242 368 242 c 0
 220 242 114 285 42 361 c 1
 34 390 30 420 30 449 c 0
 30 663 238 855 406 855 c 0
 489 855 563 808 596 693 c 1
 587 691 579 691 571 691 c 0
 505 691 494 746 430 749 c 1
153 416 m 1
 203 380 267 355 354 355 c 0
 378 355 403 357 430 361 c 1
 434 390 436 416 436 440 c 0
 436 582 365 653 263 693 c 1
 243 603 143 594 143 484 c 0
 143 465 146 442 153 416 c 1
EndSplineSet
Validated: 1
EndChar

StartChar: p.minuscule
Encoding: 17 112 16
Width: 721
LayerCount: 2
Fore
SplineSet
687 775 m 1
 690 752 691 731 691 711 c 0
 691 444 448 422 232 371 c 1
 246 166 319 20 333 -185 c 1
 85 -130 174 262 81 472 c 1
 92 469 102 468 111 468 c 0
 169 468 177 519 182 573 c 1
 176 595 168 602 157 602 c 0
 135 602 103 570 55 570 c 0
 47 570 39 571 30 573 c 1
 78 725 272 876 458 876 c 0
 540 876 621 847 687 775 c 1
283 523 m 1
 442 532 584 558 586 725 c 1
 551 731 519 734 490 734 c 0
 355 734 283 672 283 537 c 2
 283 523 l 1
EndSplineSet
Validated: 1
EndChar

StartChar: q.minuscule
Encoding: 18 113 17
Width: 718
LayerCount: 2
Fore
SplineSet
688 716 m 1
 621 760 546 780 474 780 c 0
 311 780 158 677 114 511 c 1
 160 475 203 461 245 461 c 0
 380 461 494 609 606 634 c 1
 593 549 589 468 589 391 c 0
 589 222 610 72 610 -58 c 0
 610 -88 609 -117 606 -145 c 1
 500 -122 481 -11 481 119 c 0
 481 192 487 271 487 344 c 0
 487 374 486 402 483 429 c 1
 479 433 472 434 462 434 c 0
 411 434 290 389 187 389 c 0
 120 389 61 408 32 470 c 1
 31 480 30 490 30 500 c 0
 30 699 269 879 463 879 c 0
 562 879 650 832 688 716 c 1
EndSplineSet
Validated: 1
EndChar

StartChar: r.minuscule
Encoding: 19 114 18
Width: 862
LayerCount: 2
Fore
SplineSet
832 693 m 1
 781 697 732 699 685 699 c 0
 509 699 361 670 230 626 c 1
 230 225 l 1
 11 251 68 553 30 760 c 1
 211 768 424 879 591 879 c 0
 696 879 783 835 832 693 c 1
EndSplineSet
Validated: 1
EndChar

StartChar: s.minuscule
Encoding: 20 115 19
Width: 519
LayerCount: 2
Fore
SplineSet
73 878 m 1
 215 847 398 857 419 704 c 1
 402 700 387 698 374 698 c 0
 299 698 280 754 205 754 c 0
 192 754 177 752 160 748 c 1
 208 562 489 506 489 328 c 0
 489 298 481 266 463 228 c 1
 446 230 427 231 407 231 c 0
 351 231 288 224 232 224 c 0
 143 224 71 242 71 331 c 0
 71 339 72 348 73 358 c 1
 156 347 212 308 306 308 c 0
 327 308 350 310 376 315 c 1
 360 525 30 557 30 746 c 0
 30 783 43 826 73 878 c 1
EndSplineSet
Validated: 1
EndChar

StartChar: t.minuscule
Encoding: 21 116 20
Width: 550
LayerCount: 2
Fore
SplineSet
112 1124 m 1
 125 1127 136 1129 145 1129 c 0
 188 1129 199 1097 199 1055 c 0
 199 1013 188 960 188 918 c 0
 188 903 190 890 193 879 c 1
 292 930 392 981 520 1002 c 1
 498 847 346 821 193 797 c 1
 193 788 l 2
 193 560 310 447 316 225 c 1
 170 307 112 476 112 703 c 2
 112 715 l 1
 111 755 62 747 30 756 c 1
 67 785 71 848 71 915 c 2
 71 965 l 2
 71 1032 75 1095 112 1124 c 1
EndSplineSet
Validated: 1
EndChar

StartChar: u.minuscule
Encoding: 22 117 21
Width: 1051
LayerCount: 2
Fore
SplineSet
51 699 m 1
 65 701 77 702 88 702 c 0
 152 702 166 672 166 629 c 0
 166 598 159 561 159 523 c 0
 159 474 171 425 224 388 c 1
 241 387 257 386 272 386 c 0
 563 386 504 625 681 703 c 1
 697 514 770 407 916 407 c 0
 948 407 982 412 1021 422 c 1
 1005 342 912 285 827 285 c 0
 757 285 693 323 678 415 c 1
 588 321 465 276 351 276 c 0
 181 276 30 376 30 567 c 0
 30 607 36 651 51 699 c 1
EndSplineSet
Validated: 1
EndChar

StartChar: v.minuscule
Encoding: 23 118 22
Width: 880
LayerCount: 2
Fore
SplineSet
30 781 m 1
 220 734 220 497 358 398 c 1
 523 481 519 734 767 734 c 0
 792 734 819 732 850 726 c 1
 712 555 564 392 413 234 c 1
 177 307 74 515 30 781 c 1
EndSplineSet
Validated: 1
EndChar

StartChar: w.minuscule
Encoding: 24 119 23
Width: 1020
LayerCount: 2
Fore
SplineSet
31 799 m 1
 171 731 183 536 271 416 c 1
 396 424 340 611 473 611 c 0
 484 611 496 610 510 607 c 1
 586 507 621 368 796 368 c 2
 798 368 l 1
 805 368 l 2
 843 368 852 395 852 433 c 0
 852 474 841 528 841 569 c 0
 841 584 842 596 846 607 c 1
 852 607 l 2
 994 607 989 461 990 320 c 1
 951 279 859 291 846 224 c 1
 703 257 552 282 510 416 c 1
 405 402 418 270 300 270 c 0
 291 270 282 270 271 272 c 1
 178 421 30 515 30 757 c 0
 30 770 30 785 31 799 c 1
EndSplineSet
Validated: 1
EndChar

StartChar: x.minuscule
Encoding: 25 120 24
Width: 713
LayerCount: 2
Fore
SplineSet
30 880 m 1
 140 772 294 709 378 575 c 1
 493 601 487 749 628 749 c 2
 639 749 l 1
 640 739 641 730 641 722 c 0
 641 614 521 627 509 531 c 1
 535 416 683 422 683 281 c 2
 683 270 l 1
 614 240 517 225 421 225 c 0
 325 225 229 240 160 270 c 1
 175 372 205 458 291 488 c 1
 237 646 30 650 30 862 c 2
 30 880 l 1
291 313 m 1
 303 317 317 318 333 318 c 0
 377 318 432 307 476 307 c 0
 518 307 550 317 552 357 c 1
 513 404 465 429 420 429 c 0
 365 429 315 392 291 313 c 1
EndSplineSet
Validated: 1
EndChar

StartChar: y.minuscule
Encoding: 26 121 25
Width: 639
LayerCount: 2
Fore
SplineSet
143 885 m 1
 172 861 183 837 183 813 c 0
 183 747 103 679 103 596 c 0
 103 586 104 575 107 564 c 1
 111 502 167 491 233 491 c 0
 272 491 316 495 355 495 c 0
 368 495 381 494 393 493 c 1
 533 508 473 722 607 743 c 1
 608 679 609 616 609 553 c 0
 609 235 584 -59 393 -186 c 1
 383 -187 373 -187 364 -187 c 0
 222 -187 113 -85 113 32 c 0
 113 66 122 102 143 136 c 1
 186 36 222 -71 321 -114 c 1
 483 -14 517 214 535 457 c 1
 456 421 366 398 281 398 c 0
 188 398 100 425 36 493 c 1
 32 520 30 545 30 568 c 0
 30 711 98 787 143 885 c 1
EndSplineSet
Validated: 1
EndChar

StartChar: z.minuscule
Encoding: 27 122 26
Width: 927
LayerCount: 2
Fore
SplineSet
859 875 m 1
 865 852 868 829 868 807 c 0
 868 608 618 476 445 385 c 1
 474 356 506 346 542 346 c 0
 622 346 716 396 818 396 c 0
 844 396 870 393 897 385 c 1
 884 259 694 290 595 272 c 0
 503 256 424 226 334 226 c 0
 309 226 283 229 256 234 c 1
 296 521 651 492 746 724 c 1
 712 754 672 766 629 766 c 0
 518 766 389 692 294 686 c 1
 240 677 280 574 218 573 c 1
 200 570 183 569 167 569 c 0
 108 569 65 586 30 611 c 1
 220 779 483 875 842 875 c 2
 859 875 l 1
EndSplineSet
Validated: 1
EndChar

StartChar: amajuscule
Encoding: 28 65 27
Width: 1475
LayerCount: 2
Fore
SplineSet
1445 61 m 1
 1185 94 1151 305 993 417 c 1
 929 421 866 423 806 423 c 0
 564 423 367 389 203 327 c 1
 99 300 215 100 77 100 c 0
 65 100 49 102 33 105 c 1
 31 133 30 160 30 187 c 0
 30 561 225 782 372 1038 c 1
 485 1038 l 1
 752 996 807 789 936 639 c 1
 1089 433 1383 339 1445 61 c 1
260 417 m 1
 374 519 598 535 824 549 c 1
 754 715 683 882 429 904 c 1
 421 763 227 615 227 493 c 0
 227 466 236 441 260 417 c 1
EndSplineSet
Validated: 1
EndChar

StartChar: majuscule
Encoding: 29 66 28
Width: 994
LayerCount: 2
Fore
SplineSet
526 1040 m 1
 544 986 629 879 629 792 c 0
 629 756 614 724 574 700 c 1
 643 592 836 609 912 507 c 1
 906 485 904 467 904 452 c 0
 904 378 964 365 964 291 c 0
 964 283 962 274 960 264 c 0
 945 162 746 58 584 58 c 0
 480 58 394 102 380 216 c 1
 442 188 521 168 596 168 c 0
 701 168 797 207 815 312 c 1
 815 326 l 2
 815 488 676 510 514 510 c 0
 454 510 390 507 330 507 c 1
 348 666 509 716 509 838 c 0
 509 868 500 902 476 942 c 1
 474 942 l 2
 225 942 149 746 149 526 c 0
 149 364 189 190 234 70 c 1
 87 122 30 276 30 447 c 0
 30 691 147 970 282 1040 c 1
 526 1040 l 1
EndSplineSet
Validated: 1
EndChar

StartChar: majuscule
Encoding: 30 67 29
Width: 1086
LayerCount: 2
Fore
SplineSet
843 822 m 1
 815 812 792 807 774 807 c 0
 686 807 697 912 628 930 c 1
 397 822 202 679 146 394 c 1
 180 228 286 184 422 184 c 0
 576 184 772 240 950 240 c 0
 986 240 1022 238 1056 232 c 1
 987 115 769 57 550 57 c 0
 328 57 107 116 38 232 c 1
 34 272 30 310 30 346 c 0
 30 721 277 850 466 1036 c 1
 517 1038 570 1041 620 1041 c 0
 746 1041 852 1020 852 894 c 0
 852 873 849 849 843 822 c 1
EndSplineSet
Validated: 1
EndChar

StartChar: majuscule
Encoding: 31 68 30
Width: 946
LayerCount: 2
Fore
SplineSet
60 1027 m 1
 136 1037 208 1044 272 1044 c 0
 682 1044 877 827 916 457 c 1
 848 448 867 354 858 286 c 1
 790 214 568 56 406 56 c 0
 319 56 252 101 232 229 c 1
 300 191 362 174 418 174 c 0
 613 174 730 376 730 571 c 0
 730 755 626 932 383 932 c 0
 338 932 288 927 232 913 c 1
 199 886 188 854 188 818 c 0
 188 746 233 662 233 582 c 0
 233 537 218 495 174 457 c 1
 58 521 30 607 30 712 c 0
 30 804 51 909 60 1027 c 1
EndSplineSet
Validated: 1
EndChar

StartChar: majuscule
Encoding: 32 69 31
Width: 707
LayerCount: 2
Fore
SplineSet
618 882 m 1
 564 908 517 920 473 920 c 0
 285 920 189 708 147 530 c 1
 174 497 204 485 237 485 c 0
 307 485 390 539 480 539 c 0
 500 539 519 536 539 530 c 1
 463 412 236 440 108 372 c 1
 106 364 107 358 107 350 c 0
 107 292 155 280 155 222 c 0
 155 210 153 196 147 178 c 1
 213 169 270 162 321 162 c 0
 456 162 552 198 657 294 c 1
 671 270 677 250 677 230 c 0
 677 94 369 59 186 59 c 1
 128 105 76 158 30 216 c 1
 30 224 l 2
 30 612 146 886 383 1038 c 1
 411 1040 439 1043 465 1043 c 0
 555 1043 624 1024 624 934 c 0
 624 919 622 902 618 882 c 1
EndSplineSet
Validated: 1
EndChar

StartChar: majuscule
Encoding: 33 70 32
Width: 539
LayerCount: 2
Fore
SplineSet
509 823 m 1
 415 838 398 934 287 934 c 0
 278 934 265 933 255 931 c 1
 169 885 186 736 147 642 c 1
 181 618 209 610 233 610 c 0
 283 610 322 643 408 643 c 0
 417 643 427 644 437 642 c 1
 439 633 440 622 440 614 c 0
 440 542 378 532 306 532 c 0
 273 532 237 534 204 534 c 2
 183 534 l 1
 120 482 110 375 110 258 c 0
 110 207 111 154 111 103 c 2
 111 62 l 1
 105 60 100 61 96 61 c 0
 42 61 30 107 30 158 c 0
 30 200 38 246 38 274 c 0
 38 300 36 327 36 354 c 0
 36 615 101 916 219 1039 c 1
 379 1030 477 961 509 823 c 1
EndSplineSet
Validated: 1
EndChar

StartChar: majuscule
Encoding: 34 71 33
Width: 1147
LayerCount: 2
Fore
SplineSet
717 866 m 1
 681 872 648 874 616 874 c 0
 284 874 249 582 147 352 c 1
 179 270 236 213 318 181 c 1
 327 181 337 179 346 179 c 0
 698 179 632 599 946 638 c 1
 1038 482 1096 293 1117 67 c 1
 916 75 955 323 889 467 c 1
 725 297 632 61 300 61 c 0
 270 61 238 63 204 67 c 1
 153 167 64 234 31 352 c 0
 30 358 30 364 30 370 c 2
 30 388 l 2
 30 622 272 820 432 980 c 0
 438 986 519 1040 594 1040 c 0
 656 1040 713 1002 717 866 c 1
EndSplineSet
Validated: 1
EndChar

StartChar: majuscule
Encoding: 35 72 34
Width: 731
LayerCount: 2
Fore
SplineSet
138 1044 m 1
 172 1016 185 984 185 948 c 0
 185 868 125 772 125 662 c 0
 125 635 128 604 138 576 c 1
 158 532 211 522 275 522 c 0
 344 522 424 534 492 534 c 0
 516 534 540 532 560 528 c 1
 563 548 564 566 564 582 c 0
 564 699 506 756 506 873 c 0
 506 897 507 923 513 951 c 1
 759 897 619 384 701 153 c 1
 695 153 l 2
 555 153 562 297 560 435 c 1
 185 435 l 1
 141 421 131 377 131 320 c 0
 131 257 144 181 144 118 c 0
 144 97 142 76 138 60 c 1
 57 66 45 130 45 212 c 0
 45 244 48 278 48 312 c 0
 48 338 47 363 44 387 c 0
 38 431 30 522 30 626 c 0
 30 786 51 974 138 1044 c 1
EndSplineSet
Validated: 1
EndChar

StartChar: majuscule
Encoding: 36 73 35
Width: 628
Flags: HW
LayerCount: 2
Fore
SplineSet
598 1087 m 1
 545 986 324 1053 246 978 c 1
 292 808 257 557 300 384 c 1
 321 381 340 380 358 380 c 0
 439 380 496 404 571 411 c 1
 571 410 571 409 571 408 c 0
 571 323 452 285 325 285 c 0
 183 285 31 333 30 411 c 1
 82 404 117 380 175 380 c 0
 188 380 203 381 219 384 c 1
 211 420 209 461 209 504 c 0
 209 577 216 657 216 730 c 0
 216 866 192 977 57 978 c 1
 112 1066 273 1112 423 1112 c 0
 486 1112 547 1104 598 1087 c 1
EndSplineSet
Validated: 1
EndChar

StartChar: majuscule
Encoding: 37 74 36
Width: 569
LayerCount: 2
Fore
SplineSet
533 1041 m 1
 537 1027 539 1017 539 1008 c 0
 539 974 511 966 477 966 c 0
 447 966 413 972 383 972 c 0
 373 972 362 971 353 969 c 1
 413 853 461 664 461 486 c 0
 461 306 413 136 281 72 c 1
 261 66 243 63 225 63 c 0
 117 63 30 168 30 254 c 0
 30 305 62 350 138 360 c 1
 112 336 104 311 104 285 c 0
 104 233 144 182 174 144 c 1
 332 177 380 317 380 476 c 0
 380 608 347 751 317 861 c 1
 284 861 248 860 215 860 c 0
 153 860 96 865 66 897 c 1
 114 1051 339 1032 533 1041 c 1
EndSplineSet
Validated: 1
EndChar

StartChar: majuscule
Encoding: 38 75 37
Width: 1006
LayerCount: 2
Fore
SplineSet
976 960 m 1
 864 789 653 718 449 638 c 1
 497 335 716 201 935 71 c 1
 908 63 883 60 856 60 c 0
 626 60 431 329 368 557 c 1
 359 557 352 558 344 558 c 0
 186 558 162 425 162 269 c 0
 162 205 165 137 167 71 c 1
 56 77 30 180 30 296 c 0
 30 372 43 453 46 516 c 0
 58 716 138 1042 286 1042 c 2
 287 1042 l 1
 236 877 170 728 167 516 c 1
 433 669 654 866 976 960 c 1
EndSplineSet
Validated: 1
EndChar

StartChar: majuscule
Encoding: 39 76 38
Width: 854
LayerCount: 2
Fore
SplineSet
170 1040 m 1
 178 1042 186 1042 192 1042 c 0
 248 1042 258 997 312 994 c 1
 309 702 166 547 124 293 c 1
 258 116 792 338 824 59 c 1
 594 125 261 88 31 154 c 1
 30 163 30 172 30 181 c 2
 30 206 l 2
 30 498 176 643 176 935 c 0
 176 968 174 1002 170 1040 c 1
EndSplineSet
Validated: 1
EndChar

StartChar: majuscule
Encoding: 40 77 39
Width: 1417
LayerCount: 2
Fore
SplineSet
40 1039 m 1
 222 1037 247 880 406 856 c 1
 688 900 915 997 1200 1039 c 1
 1323 928 1387 686 1387 448 c 0
 1387 310 1366 173 1321 62 c 1
 1213 150 1198 334 1198 530 c 0
 1198 616 1201 701 1201 787 c 0
 1201 809 1200 834 1200 856 c 1
 1172 860 1143 862 1116 862 c 0
 885 862 697 728 502 728 c 0
 432 728 358 746 283 794 c 1
 159 676 205 385 100 245 c 1
 44 302 30 402 30 514 c 0
 30 642 48 788 48 916 c 0
 48 960 46 1001 40 1039 c 1
EndSplineSet
Validated: 1
EndChar

StartChar: majuscule
Encoding: 41 78 40
Width: 1213
LayerCount: 2
Fore
SplineSet
157 1042 m 1
 597 961 467 315 907 234 c 1
 959 267 975 341 975 428 c 0
 975 520 958 626 958 718 c 0
 958 836 986 930 1104 930 c 0
 1114 930 1126 930 1138 928 c 1
 1171 895 1183 871 1183 851 c 0
 1183 801 1103 782 1081 696 c 1
 1096 585 1147 510 1147 384 c 0
 1147 356 1144 326 1138 292 c 1
 1032 283 1103 96 1023 60 c 1
 527 84 467 542 273 869 c 1
 143 691 162 363 99 119 c 1
 49 205 30 330 30 464 c 0
 30 688 85 932 157 1042 c 1
EndSplineSet
Validated: 1
EndChar

StartChar: majuscule
Encoding: 42 79 41
Width: 1512
LayerCount: 2
Fore
SplineSet
1482 868 m 1
 1438 259 1008 67 398 67 c 0
 302 67 203 72 99 81 c 1
 51 185 30 280 30 370 c 0
 30 787 494 1038 934 1038 c 0
 1138 1038 1338 984 1482 868 c 1
180 255 m 1
 260 247 337 244 411 244 c 0
 853 244 1169 381 1238 781 c 1
 1128 823 1001 846 873 846 c 0
 528 846 180 679 180 277 c 2
 180 255 l 1
EndSplineSet
Validated: 1
EndChar

StartChar: majuscule
Encoding: 43 80 42
Width: 1003
LayerCount: 2
Fore
SplineSet
30 808 m 1
 102 994 350 1042 660 1042 c 0
 698 1042 738 1042 777 1040 c 1
 819 958 949 964 964 854 c 1
 970 833 973 817 973 802 c 0
 973 732 913 716 913 646 c 0
 913 638 914 629 916 620 c 1
 835 572 649 479 502 479 c 0
 412 479 336 515 310 620 c 1
 348 611 474 583 582 583 c 0
 644 583 700 592 730 620 c 1
 756 642 753 689 777 713 c 0
 780 716 862 760 870 760 c 1
 870 766 l 2
 870 880 724 952 571 952 c 0
 406 952 231 869 217 667 c 1
 213 641 210 619 210 598 c 0
 210 463 307 427 310 293 c 1
 349 191 486 188 496 59 c 1
 272 87 126 335 126 584 c 0
 126 660 139 738 169 808 c 1
 163 828 154 835 145 835 c 0
 125 835 97 805 52 805 c 0
 44 805 38 806 30 808 c 1
EndSplineSet
Validated: 1
EndChar

StartChar: majuscule
Encoding: 44 81 43
Width: 1091
LayerCount: 2
Fore
SplineSet
924 852 m 1
 844 932 748 964 650 964 c 0
 418 964 179 779 141 573 c 1
 156 457 290 461 365 405 c 1
 470 511 391 800 603 800 c 0
 617 800 630 798 645 796 c 1
 623 694 533 660 533 536 c 2
 533 518 l 1
 543 473 588 461 588 405 c 1
 602 405 l 2
 683 405 708 462 789 462 c 0
 797 462 804 462 812 460 c 0
 820 458 827 459 833 459 c 0
 963 459 862 690 992 690 c 0
 1004 690 1019 688 1035 684 c 1
 1051 646 1061 611 1061 578 c 0
 1061 406 849 294 605 294 c 2
 588 294 l 1
 660 160 697 -9 869 -42 c 1
 836 -102 798 -126 759 -126 c 0
 624 -126 467 158 422 294 c 1
 406 292 387 291 372 291 c 0
 183 291 122 420 30 518 c 1
 75 790 242 940 422 1076 c 1
 442 1074 462 1074 483 1074 c 0
 552 1074 627 1080 696 1080 c 0
 826 1080 933 1057 933 927 c 0
 933 905 930 880 924 852 c 1
EndSplineSet
Validated: 1
EndChar

StartChar: majuscule
Encoding: 45 82 44
Width: 1142
LayerCount: 2
Fore
SplineSet
550 763 m 1
 553 748 554 734 554 722 c 0
 554 578 320 669 316 529 c 1
 416 239 838 272 1112 156 c 1
 1042 138 962 127 880 127 c 0
 571 127 232 263 223 577 c 1
 221 589 220 599 220 608 c 0
 220 738 425 664 457 763 c 0
 459 772 458 780 458 788 c 0
 458 874 405 907 319 907 c 0
 304 907 286 906 270 904 c 1
 176 820 136 636 130 482 c 1
 130 469 l 2
 130 337 196 215 196 128 c 0
 196 102 190 80 176 62 c 1
 76 146 30 314 30 488 c 0
 30 726 117 980 270 1044 c 1
 454 1041 547 947 550 763 c 1
EndSplineSet
Validated: 1
EndChar

StartChar: majuscule
Encoding: 46 83 45
Width: 924
LayerCount: 2
Fore
SplineSet
222 941 m 1
 210 929 206 917 206 905 c 0
 206 821 436 719 462 603 c 1
 588 521 704 429 704 221 c 0
 704 206 704 187 702 171 c 1
 646 121 450 60 284 60 c 0
 149 60 34 99 30 219 c 1
 104 189 214 167 322 167 c 0
 442 167 558 193 606 267 c 1
 494 603 100 659 30 1037 c 1
 51 1041 74 1043 98 1043 c 0
 328 1043 660 877 894 797 c 1
 866 783 830 779 790 779 c 0
 618 779 360 883 222 941 c 1
EndSplineSet
Validated: 1
EndChar

StartChar: majuscule
Encoding: 47 84 46
Width: 1315
LayerCount: 2
Fore
SplineSet
37 1025 m 1
 54 1024 72 1024 91 1024 c 2
 148 1024 l 2
 268 1024 406 1026 547 1026 c 2
 633 1026 l 1
 718 1025 l 1
 736 1025 l 2
 828 1025 946 1043 1050 1043 c 0
 1170 1043 1271 1017 1285 911 c 1
 1251 884 1210 875 1165 875 c 0
 1061 875 930 924 784 924 c 0
 744 924 703 920 661 911 c 1
 537 855 498 745 498 616 c 0
 498 434 576 213 604 59 c 1
 430 67 370 276 370 488 c 0
 370 628 397 768 435 854 c 1
 431 906 389 920 333 920 c 0
 271 920 195 904 133 904 c 0
 75 904 30 919 30 977 c 0
 30 991 33 1007 37 1025 c 1
EndSplineSet
Validated: 1
EndChar

StartChar: majuscule
Encoding: 48 85 47
Width: 814
LayerCount: 2
Fore
SplineSet
80 1040 m 1
 160 1031 184 997 184 946 c 0
 184 860 114 729 114 605 c 0
 114 569 119 535 134 502 c 1
 172 458 188 396 188 316 c 2
 188 287 l 1
 191 287 l 2
 293 287 333 224 437 224 c 0
 458 224 482 227 510 233 c 1
 660 335 614 632 725 772 c 1
 767 714 784 639 784 559 c 0
 784 373 692 163 618 71 c 1
 585 63 557 61 530 61 c 0
 404 61 343 127 215 127 c 0
 206 127 197 125 188 125 c 1
 92 273 30 493 30 715 c 0
 30 826 46 936 80 1040 c 1
EndSplineSet
Validated: 1
EndChar

StartChar: majuscule
Encoding: 49 86 48
Width: 1265
LayerCount: 2
Fore
SplineSet
33 1040 m 1
 222 1040 183 820 251 714 c 0
 311 620 471 563 471 431 c 0
 471 417 470 404 467 389 c 1
 713 465 797 959 1097 959 c 0
 1136 959 1179 952 1227 932 c 1
 1231 914 1235 900 1235 888 c 0
 1235 806 1122 856 1064 822 c 0
 816 678 660 375 576 63 c 1
 274 159 351 634 87 768 c 1
 95 792 98 814 98 830 c 0
 98 912 30 929 30 1010 c 0
 30 1019 31 1030 33 1040 c 1
EndSplineSet
Validated: 1
EndChar

StartChar: majuscule
Encoding: 50 87 49
Width: 1518
LayerCount: 2
Fore
SplineSet
81 1040 m 1
 90 1042 97 1043 105 1043 c 0
 145 1043 168 1017 177 978 c 1
 145 882 126 747 126 615 c 0
 126 427 167 246 273 195 c 1
 479 378 447 862 655 1040 c 1
 821 928 886 685 895 375 c 1
 911 375 l 2
 1257 375 1316 738 1422 1040 c 1
 1425 1040 l 2
 1470 1040 1488 992 1488 924 c 0
 1488 790 1422 581 1374 497 c 0
 1274 321 1085 225 943 195 c 1
 754 279 781 634 703 858 c 1
 523 702 515 330 415 74 c 1
 381 65 349 60 321 60 c 0
 97 60 30 317 30 591 c 0
 30 750 53 916 81 1040 c 1
EndSplineSet
Validated: 1
EndChar

StartChar: majuscule
Encoding: 51 88 50
Width: 852
LayerCount: 2
Fore
SplineSet
610 1040 m 1
 688 1020 716 986 716 944 c 0
 716 839 534 687 506 618 c 1
 620 484 722 342 822 195 c 1
 795 97 743 63 680 63 c 0
 612 63 532 103 452 143 c 1
 462 188 512 194 568 194 c 2
 618 194 l 1
 635 194 l 2
 645 194 656 194 663 195 c 1
 583 275 569 417 452 459 c 1
 441 459 l 2
 233 459 333 153 135 143 c 1
 135 152 134 161 134 170 c 0
 134 354 250 424 294 566 c 1
 252 683 110 696 30 776 c 1
 50 818 78 833 108 833 c 0
 186 833 286 732 346 723 c 1
 523 739 556 900 610 1040 c 1
EndSplineSet
Validated: 1
EndChar

StartChar: majuscule
Encoding: 52 89 51
Width: 864
LayerCount: 2
Fore
SplineSet
658 826 m 1
 700 812 744 805 789 805 c 0
 804 805 819 806 834 808 c 1
 825 778 816 751 807 721 c 1
 798 721 l 1
 676 645 580 542 380 542 c 0
 358 542 335 544 309 547 c 1
 237 387 295 96 100 58 c 1
 132 193 204 289 204 457 c 2
 204 476 l 1
 194 593 50 578 30 686 c 1
 62 804 45 972 135 1034 c 1
 153 1038 168 1042 180 1042 c 0
 272 1042 237 916 309 895 c 1
 306 874 299 866 290 866 c 0
 262 866 212 942 204 966 c 1
 106 948 140 797 100 721 c 1
 134 651 237 616 345 616 c 0
 497 616 658 683 658 818 c 2
 658 826 l 1
EndSplineSet
Validated: 1
EndChar

StartChar: majuscule
Encoding: 53 90 52
Width: 1409
LayerCount: 2
Fore
SplineSet
426 239 m 1
 494 199 567 185 645 185 c 0
 837 185 1050 272 1224 272 c 0
 1281 272 1333 263 1379 239 c 1
 1364 161 1307 146 1241 146 c 0
 1197 146 1150 152 1106 152 c 0
 1090 152 1075 152 1061 149 c 0
 901 121 716 59 564 59 c 0
 472 59 392 81 336 149 c 1
 336 154 l 2
 336 370 572 414 698 512 c 0
 828 612 980 678 1061 830 c 1
 1010 908 934 932 848 932 c 0
 738 932 615 893 516 875 c 0
 336 843 183 741 30 739 c 1
 40 777 53 815 65 853 c 1
 333 877 617 1042 879 1042 c 0
 973 1042 1065 1021 1152 965 c 1
 1154 950 1154 937 1154 923 c 0
 1154 596 869 524 653 376 c 0
 587 330 524 239 437 239 c 2
 426 239 l 1
EndSplineSet
Validated: 1
EndChar

StartChar: zero
Encoding: 54 48 53
Width: 568
LayerCount: 2
Fore
SplineSet
215 863 m 0
 249 874 281 879 309 879 c 0
 465 879 538 732 538 577 c 0
 538 405 447 223 276 223 c 2
 266 223 l 1
 113 230 30 391 30 552 c 0
 30 688 89 824 215 863 c 0
292 300 m 1
 421 309 482 434 482 560 c 0
 482 689 418 818 300 818 c 0
 268 818 231 808 190 786 c 0
 117 746 80 653 80 558 c 0
 80 430 147 300 278 300 c 2
 292 300 l 1
EndSplineSet
Validated: 513
EndChar

StartChar: "num+AOkA-ro 1" 
Encoding: 55 49 54
Width: 457
LayerCount: 2
Fore
SplineSet
383 686 m 1
 377 687 371 687 365 687 c 0
 250 687 150 515 30 466 c 1
 144 673 328 680 427 885 c 1
 418 690 380 481 380 307 c 0
 380 278 381 250 383 223 c 1
 345 254 330 336 330 424 c 0
 330 531 352 645 383 686 c 1
EndSplineSet
Validated: 513
EndChar

StartChar: deux
Encoding: 56 50 55
Width: 391
LayerCount: 2
Fore
SplineSet
274 875 m 1
 299 830 310 786 310 742 c 0
 310 579 164 430 100 310 c 1
 123 283 149 274 177 274 c 0
 231 274 292 308 361 310 c 1
 352 233 274 223 187 223 c 0
 157 223 126 224 97 224 c 0
 83 224 69 224 56 223 c 1
 55 232 54 240 54 248 c 0
 54 413 263 544 263 735 c 0
 263 759 260 784 252 810 c 1
 241 812 231 812 222 812 c 0
 93 812 98 666 78 614 c 1
 44 628 30 653 30 682 c 0
 30 763 140 877 249 877 c 0
 258 877 266 876 274 875 c 1
EndSplineSet
Validated: 513
EndChar

StartChar: three
Encoding: 57 51 56
Width: 428
LayerCount: 2
Fore
SplineSet
350 878 m 1
 363 842 385 816 398 780 c 1
 382 691 309 660 253 611 c 1
 335 574 372 487 372 379 c 0
 372 330 364 277 350 222 c 1
 238 266 30 216 30 373 c 0
 30 386 32 401 35 417 c 1
 108 401 117 321 180 295 c 1
 225 314 269 336 326 344 c 1
 329 361 330 376 330 390 c 0
 330 505 240 531 156 562 c 1
 175 673 287 689 326 780 c 1
 308 801 288 808 267 808 c 0
 213 808 152 761 103 761 c 0
 87 761 72 766 59 780 c 1
 106 862 231 868 350 878 c 1
EndSplineSet
Validated: 513
EndChar

StartChar: quatre
Encoding: 58 52 57
Width: 326
LayerCount: 2
Fore
SplineSet
132 878 m 1
 140 861 143 842 143 824 c 0
 143 737 71 641 71 538 c 2
 71 531 l 1
 78 504 107 498 112 469 c 1
 206 477 217 568 275 612 c 1
 271 568 266 500 266 432 c 0
 266 349 273 265 296 224 c 1
 289 224 l 2
 196 224 225 346 214 429 c 1
 184 419 159 414 138 414 c 0
 95 414 65 434 30 469 c 1
 49 621 65 775 132 878 c 1
EndSplineSet
Validated: 513
EndChar

StartChar: "num+AOkA-ro 5" 
Encoding: 59 53 58
Width: 489
LayerCount: 2
Fore
SplineSet
407 791 m 1
 389 773 371 767 352 767 c 0
 312 767 269 796 212 796 c 0
 200 796 187 794 173 791 c 1
 237 673 403 657 459 531 c 1
 399 402 315 224 150 224 c 0
 118 224 83 231 44 246 c 1
 35 286 30 298 30 310 c 0
 30 322 35 335 44 375 c 1
 50 376 56 377 61 377 c 0
 118 377 91 294 148 294 c 0
 155 294 163 295 173 298 c 1
 302 307 320 427 381 505 c 1
 322 636 140 645 70 765 c 0
 69 768 69 772 69 775 c 0
 69 840 169 878 260 878 c 0
 336 878 406 852 407 791 c 1
EndSplineSet
Validated: 513
EndChar

StartChar: "num+AOkA-ro 6" 
Encoding: 60 54 59
Width: 488
LayerCount: 2
Fore
SplineSet
458 868 m 1
 324 785 192 699 143 530 c 1
 144 522 152 519 163 519 c 0
 190 519 240 535 285 535 c 0
 299 535 311 534 323 530 c 1
 375 491 396 447 396 406 c 0
 396 309 281 224 180 224 c 0
 101 224 30 276 30 417 c 0
 30 522 258 879 415 879 c 0
 430 879 444 875 458 868 c 1
120 283 m 1
 137 281 154 280 169 280 c 0
 259 280 313 316 323 395 c 1
 304 458 252 485 201 485 c 0
 136 485 71 443 71 381 c 0
 71 352 85 319 120 283 c 1
EndSplineSet
Validated: 513
EndChar

StartChar: "num+AOkA-ro 7" 
Encoding: 61 55 60
Width: 489
LayerCount: 2
Fore
SplineSet
384 861 m 1
 385 854 385 847 385 841 c 0
 385 775 356 736 356 669 c 0
 356 656 357 641 360 625 c 1
 365 609 369 603 374 603 c 0
 388 603 403 654 436 654 c 0
 442 654 448 653 455 649 c 1
 458 636 459 625 459 614 c 0
 459 550 414 531 350 531 c 2
 337 531 l 1
 338 521 339 511 339 502 c 0
 339 401 259 379 259 278 c 0
 259 262 261 244 266 224 c 1
 228 241 215 267 215 298 c 0
 215 357 263 432 266 484 c 1
 259 494 250 498 238 498 c 0
 196 498 127 447 83 447 c 0
 71 447 61 451 54 460 c 1
 99 533 199 551 290 578 c 1
 296 643 317 693 317 763 c 0
 317 779 316 795 313 814 c 1
 182 811 138 722 30 696 c 1
 62 794 179 877 297 877 c 0
 326 877 356 872 384 861 c 1
EndSplineSet
Validated: 513
EndChar

StartChar: huit
Encoding: 62 56 61
Width: 458
LayerCount: 2
Fore
SplineSet
428 874 m 1
 425 740 323 707 272 621 c 1
 314 540 386 487 409 387 c 1
 336 285 233 224 112 224 c 0
 88 224 63 226 38 231 c 1
 33 250 30 268 30 286 c 0
 30 424 174 513 214 640 c 1
 200 668 193 695 193 719 c 0
 193 819 303 879 389 879 c 0
 403 879 416 877 428 874 c 1
77 270 m 1
 210 280 289 344 370 406 c 1
 302 448 293 550 214 582 c 1
 191 463 76 435 76 294 c 0
 76 286 76 278 77 270 c 1
272 679 m 1
 282 711 346 751 346 788 c 0
 346 798 342 807 331 816 c 1
 298 793 239 759 239 723 c 0
 239 709 249 694 272 679 c 1
EndSplineSet
Validated: 513
EndChar

StartChar: "num+AOkA-ro 9" 
Encoding: 63 57 62
Width: 491
LayerCount: 2
Fore
SplineSet
355 874 m 1
 428 803 461 706 461 609 c 0
 461 418 335 225 148 225 c 0
 111 225 71 232 30 249 c 1
 111 364 413 279 413 523 c 0
 413 545 410 571 405 599 c 1
 365 651 230 607 180 649 c 1
 168 682 161 713 161 741 c 0
 161 820 210 877 313 877 c 0
 326 877 340 876 355 874 c 1
380 674 m 1
 381 680 381 686 381 692 c 0
 381 768 337 801 261 801 c 0
 251 801 241 800 230 799 c 1
 229 791 229 784 229 777 c 0
 229 693 300 679 380 674 c 1
EndSplineSet
Validated: 513
EndChar

StartChar: point
Encoding: 64 46 63
Width: 177
LayerCount: 2
Fore
SplineSet
30 262 m 1
 37 297 63 312 89 312 c 0
 118 312 146 293 147 262 c 1
 139 235 131 226 121 226 c 0
 102 226 77 262 36 262 c 2
 30 262 l 1
EndSplineSet
Validated: 1
EndChar

StartChar: euro
Encoding: 65 8364 64
Width: 890
LayerCount: 2
Fore
SplineSet
787 861 m 1
 789 853 789 845 789 838 c 0
 789 781 743 749 704 749 c 0
 689 749 675 753 665 763 c 1
 669 792 709 784 738 788 c 1
 709 802 683 808 659 808 c 0
 534 808 466 642 396 568 c 1
 429 545 478 539 533 539 c 0
 594 539 663 547 724 547 c 0
 779 547 827 541 860 519 c 1
 805 477 717 469 620 469 c 0
 560 469 495 472 435 472 c 0
 413 472 393 472 372 471 c 1
 476 426 572 373 722 373 c 2
 738 373 l 1
 741 369 742 365 742 362 c 0
 742 346 710 343 671 343 c 0
 637 343 596 346 567 348 c 0
 511 352 461 379 423 379 c 0
 413 379 404 378 396 373 c 1
 397 285 526 323 567 275 c 1
 587 273 607 272 625 272 c 0
 705 272 766 290 836 300 c 1
 800 244 733 225 657 225 c 0
 558 225 445 256 372 275 c 1
 372 318 320 310 320 353 c 0
 320 359 321 365 323 373 c 1
 152 373 l 1
 151 379 150 384 150 388 c 0
 150 419 175 425 206 425 c 0
 226 425 249 422 269 422 c 0
 295 422 317 427 323 446 c 1
 303 469 266 474 223 474 c 0
 177 474 124 467 78 467 c 0
 61 467 45 468 30 471 c 1
 38 518 85 526 141 526 c 0
 166 526 192 524 218 524 c 0
 258 524 296 527 323 544 c 1
 424 659 505 878 693 878 c 0
 722 878 753 872 787 861 c 1
EndSplineSet
Validated: 1
EndChar

StartChar: dollar
Encoding: 66 36 65
Width: 828
LayerCount: 2
Fore
SplineSet
349 877 m 1
 352 877 355 878 358 878 c 0
 388 878 395 855 395 826 c 0
 395 797 388 762 388 733 c 0
 388 703 396 681 426 681 c 0
 434 681 443 682 455 686 c 1
 464 687 467 693 467 702 c 0
 467 724 450 764 450 802 c 0
 450 813 451 824 455 834 c 1
 524 832 501 738 519 686 c 1
 553 616 710 668 710 564 c 2
 710 558 l 1
 703 557 697 557 691 557 c 0
 621 557 617 622 547 622 c 2
 540 622 l 1
 538 613 537 605 537 598 c 0
 537 534 629 563 667 537 c 1
 669 537 l 2
 732 537 750 492 795 473 c 1
 797 458 798 443 798 430 c 0
 798 262 622 224 443 224 c 0
 356 224 268 233 200 240 c 1
 200 244 201 247 201 250 c 0
 201 268 193 278 179 282 c 1
 179 288 l 2
 179 336 212 350 221 388 c 1
 224 388 l 2
 240 388 245 376 245 360 c 0
 245 342 239 317 239 299 c 0
 239 292 240 287 242 282 c 1
 370 282 l 1
 370 291 l 2
 370 359 345 401 345 469 c 0
 345 483 346 499 349 516 c 1
 335 517 321 518 306 518 c 0
 266 518 222 514 181 514 c 0
 102 514 35 527 30 601 c 1
 119 647 243 658 349 686 c 1
 349 877 l 1
221 643 m 1
 216 587 114 629 114 570 c 0
 114 566 114 562 115 558 c 1
 349 558 l 1
 349 643 l 1
 339 645 330 646 322 646 c 0
 287 646 268 628 249 628 c 0
 240 628 231 632 221 643 c 1
391 558 m 1
 476 558 l 1
 476 643 l 1
 467 644 459 645 452 645 c 0
 410 645 389 624 389 582 c 0
 389 575 390 567 391 558 c 1
412 282 m 1
 442 280 471 279 499 279 c 0
 641 279 752 310 752 452 c 1
 702 487 629 499 561 516 c 1
 557 505 555 494 555 483 c 0
 555 438 584 398 584 365 c 0
 584 350 578 336 561 324 c 1
 504 352 525 459 497 516 c 1
 412 516 l 1
 399 500 395 484 395 466 c 0
 395 426 417 381 417 326 c 0
 417 312 416 297 412 282 c 1
EndSplineSet
Validated: 1
EndChar

StartChar: esperluette
Encoding: 67 38 66
Width: 576
LayerCount: 2
Fore
SplineSet
357 797 m 1
 319 706 267 628 173 593 c 1
 198 496 287 462 357 409 c 1
 423 418 427 488 459 531 c 1
 478 587 522 618 541 674 c 1
 544 665 546 655 546 645 c 0
 546 574 478 465 439 409 c 1
 439 405 l 2
 439 337 512 344 541 307 c 1
 531 290 517 284 502 284 c 0
 466 284 421 319 398 327 c 1
 354 283 291 257 234 225 c 1
 223 225 l 2
 116 225 30 332 30 431 c 0
 30 477 49 521 91 552 c 1
 91 613 38 621 30 674 c 1
 30 677 l 2
 30 783 138 878 235 878 c 0
 283 878 329 854 357 797 c 1
112 613 m 1
 208 646 282 702 296 818 c 1
 274 830 251 835 230 835 c 0
 149 835 83 758 83 686 c 0
 83 660 92 634 112 613 c 1
153 286 m 1
 164 285 174 284 184 284 c 0
 249 284 291 308 337 327 c 1
 300 405 231 453 153 491 c 1
 149 505 139 512 122 512 c 0
 119 512 116 511 112 511 c 1
 88 487 79 460 79 433 c 0
 79 379 117 324 153 286 c 1
EndSplineSet
Validated: 1
EndChar

StartChar: "latin minuscule +AOkA" 
Encoding: 68 233 67
Width: 829
LayerCount: 2
Fore
SplineSet
799 1061 m 1
 798 944 640 956 498 927 c 0
 408 909 313 867 240 867 c 0
 210 867 184 874 164 893 c 1
 210 992 376 971 498 994 c 1
 606 1009 679 1058 799 1061 c 1
364 726 m 1
 397 681 477 683 498 626 c 1
 502 611 504 599 504 588 c 0
 504 538 463 528 463 478 c 0
 463 472 464 466 465 459 c 1
 424 444 356 426 295 426 c 0
 225 426 165 449 164 526 c 1
 190 502 235 490 281 490 c 0
 347 490 415 514 431 559 c 1
 411 620 371 645 326 645 c 0
 241 645 139 555 130 459 c 1
 140 279 357 306 498 258 c 1
 453 232 406 221 360 221 c 0
 215 221 77 328 30 425 c 1
 67 600 183 695 364 726 c 1
EndSplineSet
Validated: 513
EndChar

StartChar: egrave
Encoding: 69 232 68
Width: 740
LayerCount: 2
Fore
SplineSet
459 660 m 0
 423 660 398 642 387 569 c 1
 402 568 415 567 429 567 c 0
 511 567 574 587 602 640 c 1
 544 640 495 660 459 660 c 0
534 715 m 0
 596 715 657 703 709 676 c 1
 710 666 710 658 710 649 c 0
 710 512 589 496 452 496 c 0
 410 496 366 498 324 498 c 0
 309 498 294 498 280 497 c 1
 280 484 l 2
 280 286 507 315 673 283 c 1
 634 239 589 223 540 223 c 0
 443 223 333 287 244 319 c 1
 201 383 238 527 173 569 c 1
 232 651 387 715 534 715 c 0
39 1141 m 2
 128 1141 229 1093 316 1069 c 0
 402 1045 561 1078 566 962 c 1
 382 1017 77 950 30 1141 c 1
 39 1141 l 2
EndSplineSet
Validated: 513
EndChar

StartChar: edieresis
Encoding: 70 235 69
Width: 604
LayerCount: 2
Fore
SplineSet
75 1071 m 0
 145 1070 175 1015 175 956 c 0
 175 913 159 868 131 842 c 1
 64 880 66 987 41 1067 c 1
 53 1069 65 1071 75 1071 c 0
446 977 m 1
 446 967 l 2
 446 872 364 815 293 815 c 0
 265 815 239 824 221 842 c 1
 252 931 341 962 446 977 c 1
344 737 m 0
 370 737 401 733 438 722 c 1
 442 699 443 678 443 659 c 0
 443 512 345 462 257 404 c 1
 268 334 308 315 355 315 c 0
 408 315 472 339 519 339 c 0
 543 339 562 333 574 314 c 1
 520 251 456 225 390 225 c 0
 226 225 55 388 30 540 c 1
 34 540 l 2
 203 540 175 737 344 737 c 0
EndSplineSet
Validated: 513
EndChar

StartChar: ecircumflex
Encoding: 71 234 70
Width: 485
LayerCount: 2
Fore
SplineSet
283 1200 m 1
 288 1201 292 1201 296 1201 c 0
 330 1201 336 1173 369 1171 c 1
 360 1058 349 957 349 860 c 0
 349 760 360 666 398 571 c 1
 318 508 161 523 141 400 c 1
 141 392 l 2
 141 297 223 283 318 283 c 0
 355 283 395 285 432 285 c 2
 455 285 l 1
 426 242 371 225 312 225 c 0
 220 225 118 266 83 314 c 1
 86 334 87 352 87 369 c 0
 87 437 69 488 55 542 c 1
 57 542 l 2
 180 542 212 634 312 657 c 1
 286 695 280 753 280 817 c 0
 280 875 285 939 285 997 c 0
 285 1018 285 1038 283 1057 c 1
 183 967 136 823 83 685 c 1
 44 701 30 724 30 751 c 0
 30 816 115 899 141 943 c 1
 157 1061 240 1110 283 1200 c 1
EndSplineSet
Validated: 513
EndChar

StartChar: ccedilla
Encoding: 72 231 71
Width: 437
LayerCount: 2
Fore
SplineSet
355 872 m 1
 392 867 407 841 407 799 c 0
 407 791 406 782 405 772 c 1
 398 772 390 773 383 773 c 0
 177 773 100 591 100 423 c 0
 100 397 102 371 105 347 c 1
 113 349 120 350 127 350 c 0
 162 350 176 329 205 322 c 1
 248 387 305 439 405 447 c 1
 398 349 262 347 262 274 c 0
 262 260 268 243 280 222 c 1
 130 222 l 1
 135 157 168 121 238 121 c 0
 243 121 249 122 255 122 c 1
 238 88 213 74 188 74 c 0
 135 74 79 136 79 201 c 0
 79 225 86 250 105 272 c 1
 81 298 56 323 30 347 c 1
 36 625 158 786 355 872 c 1
EndSplineSet
Validated: 513
EndChar

StartChar: icircumflex
Encoding: 73 238 72
Width: 483
LayerCount: 2
Fore
SplineSet
234 862 m 1
 347 862 l 1
 380 851 386 831 386 809 c 0
 386 796 384 783 384 770 c 1
 381 766 380 762 380 757 c 0
 380 744 389 727 389 714 c 0
 389 700 379 690 339 690 c 0
 330 690 320 690 309 691 c 1
 309 823 l 1
 161 796 137 725 47 678 c 1
 35 687 30 696 30 705 c 0
 30 756 198 811 234 862 c 1
209 674 m 1
 262 662 268 602 268 536 c 2
 268 482 l 1
 268 482 268 446 270 430 c 0
 280 359 381 379 453 369 c 1
 440 280 376 243 274 243 c 0
 254 243 232 244 209 247 c 1
 166 288 144 374 144 460 c 0
 144 547 166 634 209 674 c 1
EndSplineSet
Validated: 513
EndChar

StartChar: ocircumflex
Encoding: 74 244 73
Width: 543
LayerCount: 2
Fore
SplineSet
262 1051 m 1
 269 904 408 794 408 665 c 0
 408 638 402 611 388 582 c 1
 434 503 498 442 513 331 c 1
 478 257 410 224 340 224 c 0
 263 224 182 264 137 331 c 1
 136 345 135 358 135 370 c 0
 135 525 237 578 356 613 c 1
 326 749 248 838 200 957 c 1
 148 894 87 841 75 738 c 1
 43 752 30 773 30 798 c 0
 30 873 142 984 168 1051 c 1
 262 1051 l 1
200 394 m 1
 220 327 276 296 362 296 c 0
 380 296 399 297 419 300 c 1
 424 320 427 339 427 357 c 0
 427 451 359 512 297 512 c 0
 250 512 206 476 200 394 c 1
EndSplineSet
Validated: 513
EndChar

StartChar: idieresis
Encoding: 75 239 74
Width: 304
LayerCount: 2
Fore
SplineSet
50 878 m 0
 93 878 111 845 111 810 c 0
 111 784 101 757 84 741 c 1
 44 764 45 828 30 876 c 1
 37 877 44 878 50 878 c 0
274 822 m 1
 274 816 l 2
 274 759 224 724 181 724 c 0
 164 724 149 730 138 741 c 1
 157 794 211 813 274 822 c 1
111 605 m 1
 129 584 162 476 165 416 c 0
 166 389 173 348 173 311 c 0
 173 265 162 226 118 226 c 2
 111 226 l 1
 121 243 125 262 125 282 c 0
 125 350 82 432 82 510 c 0
 82 543 89 575 111 605 c 1
EndSplineSet
Validated: 513
EndChar

StartChar: odieresis
Encoding: 76 246 75
Width: 606
LayerCount: 2
Fore
SplineSet
425 1062 m 1
 518 1044 543 956 543 867 c 0
 543 824 537 780 531 744 c 1
 550 720 565 690 576 653 c 1
 567 651 559 651 552 651 c 0
 488 651 477 703 416 706 c 1
 495 620 554 522 554 421 c 0
 554 356 530 290 469 225 c 1
 428 220 391 217 355 217 c 0
 213 217 111 258 41 332 c 1
 33 360 30 388 30 416 c 0
 30 623 231 809 393 809 c 0
 403 809 414 809 424 807 c 1
 423 821 423 835 423 850 c 0
 423 901 427 957 427 1008 c 0
 427 1027 427 1045 425 1062 c 1
92 1015 m 1
 235 1015 l 1
 216 929 218 824 113 824 c 0
 107 824 100 824 92 825 c 1
 92 1015 l 1
255 653 m 1
 236 566 139 557 139 449 c 0
 139 431 141 410 148 385 c 1
 197 350 258 327 342 327 c 0
 365 327 389 328 416 332 c 1
 420 359 422 384 422 407 c 0
 422 545 354 614 255 653 c 1
EndSplineSet
Validated: 513
EndChar

StartChar: u
Encoding: 77 251 76
Width: 575
LayerCount: 2
Fore
SplineSet
195 1214 m 1
 353 1186 374 1020 440 900 c 1
 433 900 l 2
 306 900 325 1044 265 1110 c 1
 255 1112 247 1113 239 1113 c 0
 138 1113 182 967 81 967 c 0
 73 967 65 968 55 970 c 1
 69 1084 128 1153 195 1214 c 1
125 795 m 1
 154 790 164 769 164 738 c 0
 164 668 113 546 113 440 c 0
 113 389 125 342 160 305 c 1
 272 344 328 441 335 585 c 1
 500 552 468 321 545 200 c 1
 537 200 l 2
 435 200 424 292 405 375 c 1
 398 375 l 2
 291 375 327 233 220 233 c 0
 212 233 204 233 195 235 c 0
 70 254 30 340 30 444 c 0
 30 564 84 707 125 795 c 1
EndSplineSet
Validated: 1
EndChar

StartChar: agrave
Encoding: 78 224 77
Width: 871
LayerCount: 2
Fore
SplineSet
158 1100 m 2
 246 1100 346 1054 432 1030 c 0
 518 1006 675 1038 680 923 c 1
 498 977 196 911 149 1100 c 1
 158 1100 l 2
597 861 m 0
 628 861 660 859 691 856 c 1
 717 789 763 743 830 717 c 1
 838 679 841 643 841 608 c 0
 841 374 677 225 498 225 c 0
 454 225 409 234 366 253 c 1
 368 419 534 549 663 549 c 0
 690 549 715 543 737 531 c 1
 741 552 744 571 744 587 c 0
 744 710 629 717 552 763 c 1
 294 743 156 602 42 438 c 1
 34 463 30 486 30 510 c 0
 30 708 301 861 597 861 c 0
675 439 m 0
 611 438 505 389 505 344 c 0
 505 328 519 312 552 299 c 1
 557 383 692 335 692 424 c 0
 692 428 692 433 691 438 c 1
 686 439 681 439 675 439 c 0
EndSplineSet
Validated: 1
EndChar

StartChar: "minuscule u tr+AOkA-ma" 
Encoding: 79 252 78
Width: 664
LayerCount: 2
Fore
SplineSet
343 1101 m 1
 444 1094 460 977 460 887 c 0
 460 856 458 829 457 810 c 1
 451 810 l 2
 340 810 370 991 343 1101 c 1
85 1029 m 1
 198 1043 l 1
 192 969 205 881 105 879 c 1
 85 1029 l 1
88 826 m 1
 129 824 141 790 141 738 c 0
 141 674 123 583 123 497 c 0
 123 417 138 342 197 294 c 1
 302 347 350 443 350 576 c 0
 350 592 349 609 348 626 c 1
 534 614 532 357 634 235 c 1
 623 233 613 232 604 232 c 0
 510 232 486 323 455 406 c 1
 320 396 401 223 253 223 c 2
 245 223 l 1
 78 226 30 353 30 498 c 0
 30 614 61 741 88 826 c 1
EndSplineSet
Validated: 513
EndChar

StartChar: o
Encoding: 80 339 79
Width: 833
LayerCount: 2
Fore
SplineSet
391 777 m 1
 433 801 499 805 562 812 c 1
 583 770 625 755 634 714 c 0
 636 704 637 693 637 684 c 0
 637 586 526 540 455 487 c 1
 454 478 453 468 453 459 c 0
 453 381 505 322 567 310 c 0
 576 308 584 307 593 307 c 0
 673 307 742 375 803 376 c 1
 803 274 708 233 606 233 c 0
 515 233 418 266 376 318 c 1
 312 275 246 235 144 223 c 1
 64 285 30 389 30 498 c 0
 30 659 104 828 212 878 c 1
 262 873 297 847 346 840 c 1
 357 814 376 798 391 777 c 1
188 297 m 1
 263 329 347 369 347 436 c 0
 347 523 196 595 188 692 c 1
 186 696 185 701 185 705 c 0
 185 724 201 740 201 750 c 0
 201 756 196 759 180 760 c 1
 146 696 102 580 102 476 c 0
 102 402 124 335 188 297 c 1
340 626 m 1
 341 631 342 636 342 641 c 0
 342 681 311 725 288 749 c 1
 283 748 278 749 273 748 c 1
 271 738 270 726 270 715 c 0
 270 670 289 625 331 625 c 0
 334 625 337 626 340 626 c 1
465 603 m 1
 510 620 553 638 553 690 c 0
 553 697 552 704 551 712 c 1
 534 734 516 743 500 743 c 0
 469 743 444 710 444 668 c 0
 444 647 450 625 465 603 c 1
EndSplineSet
Validated: 1
EndChar

StartChar: parenthese
Encoding: 81 40 80
Width: 295
LayerCount: 2
Fore
SplineSet
262 807 m 1
 230 789 200 800 171 782 c 0
 116 748 92 645 92 538 c 0
 92 446 110 351 141 293 c 0
 156 265 181 252 181 228 c 2
 181 223 l 1
 176 223 l 2
 101 223 46 343 35 429 c 0
 32 458 30 487 30 515 c 0
 30 674 83 819 176 878 c 1
 206 864 265 857 265 821 c 0
 265 817 264 812 262 807 c 1
EndSplineSet
Validated: 1
EndChar

StartChar: parenthese
Encoding: 82 41 81
Width: 257
LayerCount: 2
Fore
SplineSet
120 876 m 1
 146 873 173 839 185 810 c 0
 213 744 227 643 227 543 c 0
 227 428 209 315 175 259 c 1
 151 241 116 224 86 224 c 0
 61 224 39 236 30 269 c 1
 138 270 169 358 169 469 c 0
 169 614 116 797 110 876 c 1
 120 876 l 1
EndSplineSet
Validated: 1
EndChar

StartChar: crochet
Encoding: 83 91 82
Width: 328
LayerCount: 2
Fore
SplineSet
273 821 m 1
 265 795 244 790 218 790 c 0
 201 790 182 792 165 792 c 0
 146 792 128 789 116 777 c 1
 106 735 102 686 102 635 c 0
 102 563 110 487 122 426 c 0
 129 390 138 323 154 313 c 0
 158 310 163 309 168 309 c 0
 195 309 231 340 261 340 c 0
 275 340 288 333 298 313 c 1
 285 261 237 238 187 238 c 0
 145 238 102 254 78 282 c 1
 54 361 30 489 30 607 c 0
 30 716 50 817 110 865 c 1
 160 865 l 2
 213 865 260 861 273 821 c 1
EndSplineSet
Validated: 1
EndChar

StartChar: crochet
Encoding: 84 93 83
Width: 392
LayerCount: 2
Fore
SplineSet
293 853 m 1
 301 825 341 796 353 752 c 0
 360 727 362 697 362 664 c 0
 362 596 352 516 352 448 c 0
 352 437 352 427 353 417 c 0
 354 394 356 372 356 352 c 0
 356 306 347 270 299 249 c 1
 274 258 241 260 206 260 c 2
 153 260 l 2
 103 260 56 263 31 289 c 1
 30 293 30 297 30 300 c 0
 30 315 36 323 38 336 c 1
 66 344 95 348 123 348 c 0
 172 348 220 338 266 330 c 1
 271 412 286 510 286 601 c 0
 286 662 279 719 259 766 c 1
 195 785 92 764 51 806 c 1
 64 849 113 859 168 859 c 0
 211 859 257 853 293 853 c 1
EndSplineSet
Validated: 1
EndChar

StartChar: accolade
Encoding: 85 123 84
Width: 353
LayerCount: 2
Fore
SplineSet
261 854 m 1
 262 851 262 848 262 845 c 0
 262 831 255 823 250 812 c 1
 241 814 232 815 224 815 c 0
 172 815 138 774 138 725 c 0
 138 713 140 701 144 689 c 0
 157 653 212 633 212 588 c 0
 212 553 164 541 164 497 c 0
 164 485 167 471 176 454 c 1
 147 406 94 376 83 316 c 1
 117 304 151 280 187 280 c 2
 189 280 l 1
 252 283 258 341 311 360 c 1
 319 349 323 338 323 327 c 0
 323 285 274 243 229 232 c 0
 220 230 210 229 201 229 c 0
 156 229 112 250 76 250 c 2
 72 250 l 1
 62 274 42 285 30 306 c 1
 30 308 l 2
 30 381 78 418 115 466 c 1
 109 496 76 487 67 512 c 1
 80 553 136 564 150 604 c 1
 111 637 91 683 91 729 c 0
 91 766 104 803 129 831 c 0
 151 855 181 870 211 870 c 0
 228 870 245 865 261 854 c 1
EndSplineSet
Validated: 1
EndChar

StartChar: accolade
Encoding: 86 125 85
Width: 295
LayerCount: 2
Fore
SplineSet
157 660 m 1
 169 645 195 645 204 627 c 1
 195 583 131 553 110 505 c 1
 184 495 251 459 251 386 c 0
 251 375 249 363 246 350 c 0
 233 301 173 262 110 247 c 0
 96 244 78 238 62 238 c 0
 50 238 40 241 35 251 c 1
 41 318 188 299 188 380 c 0
 188 387 187 394 185 402 c 1
 157 450 81 448 30 472 c 1
 38 530 80 554 105 595 c 1
 98 613 95 628 95 642 c 0
 95 712 170 743 190 801 c 1
 185 803 179 804 172 804 c 0
 144 804 106 790 77 790 c 0
 60 790 46 795 39 811 c 1
 56 848 119 872 175 872 c 0
 222 872 265 855 265 810 c 0
 265 748 176 706 157 660 c 1
EndSplineSet
Validated: 1
EndChar

StartChar: "signe +AOkA-gal" 
Encoding: 87 61 86
Width: 430
LayerCount: 2
Fore
SplineSet
234 608 m 0
 281 608 327 599 363 580 c 1
 364 574 364 569 364 564 c 0
 364 542 357 526 348 513 c 1
 341 513 333 514 326 514 c 0
 236 514 148 478 75 478 c 0
 59 478 44 480 30 484 c 1
 43 567 139 608 234 608 c 0
316 394 m 0
 349 394 378 384 400 358 c 1
 353 301 244 264 140 264 c 0
 107 264 74 268 45 276 c 1
 43 290 36 300 36 317 c 0
 36 320 36 324 37 328 c 1
 120 333 232 394 316 394 c 0
EndSplineSet
Validated: 513
EndChar

StartChar: signe
Encoding: 88 45 87
Width: 368
LayerCount: 2
Fore
SplineSet
35 398 m 1
 32 405 30 410 30 416 c 0
 30 460 115 480 196 480 c 0
 268 480 338 464 338 434 c 0
 338 399 251 390 169 390 c 0
 110 390 54 395 35 398 c 1
EndSplineSet
Validated: 1
EndChar

StartChar: signe
Encoding: 89 43 88
Width: 515
LayerCount: 2
Fore
SplineSet
297 458 m 1
 343 458 395 487 440 487 c 0
 456 487 471 483 485 473 c 1
 464 409 377 410 312 390 c 1
 311 386 311 382 311 378 c 0
 311 352 323 337 323 311 c 2
 323 306 l 1
 312 298 302 294 292 294 c 0
 250 294 220 359 176 369 c 1
 171 369 l 2
 133 369 93 341 62 341 c 0
 50 341 39 345 30 358 c 1
 52 412 112 430 182 437 c 1
 243 448 204 623 254 623 c 0
 263 623 275 617 291 604 c 1
 291 579 l 1
 291 528 l 2
 291 503 292 478 297 458 c 1
EndSplineSet
Validated: 1
EndChar

StartChar: copyright
Encoding: 90 169 89
Width: 795
LayerCount: 2
Fore
SplineSet
754 762 m 1
 762 726 765 691 765 658 c 0
 765 512 700 388 637 291 c 1
 577 248 500 228 420 228 c 0
 331 228 239 253 165 298 c 0
 90 344 30 416 30 509 c 0
 30 546 40 586 62 630 c 0
 103 711 205 810 298 851 c 0
 336 868 373 875 410 875 c 0
 530 875 644 801 754 762 c 1
467 726 m 1
 496 706 536 696 541 652 c 1
 529 629 514 622 496 622 c 0
 477 622 455 630 430 637 c 1
 359 602 292 564 283 468 c 1
 307 451 332 445 356 445 c 0
 429 445 502 504 570 512 c 1
 572 501 582 500 585 490 c 1
 561 384 433 381 327 357 c 1
 291 380 250 398 224 431 c 1
 221 450 220 468 220 484 c 0
 220 603 283 658 349 711 c 1
 338 711 l 2
 218 711 116 618 116 504 c 0
 116 476 122 446 136 416 c 1
 223 367 311 318 448 318 c 0
 464 318 480 319 497 320 c 1
 593 356 665 482 665 602 c 0
 665 649 654 694 629 733 c 1
 624 732 619 732 614 732 c 0
 582 732 545 743 514 743 c 0
 495 743 479 739 467 726 c 1
EndSplineSet
Validated: 1
EndChar

StartChar: point
Encoding: 91 33 90
Width: 271
LayerCount: 2
Fore
SplineSet
205 1009 m 1
 225 959 241 872 241 787 c 0
 241 670 210 556 117 546 c 1
 107 596 100 661 100 726 c 0
 100 849 125 975 205 1009 c 1
147 389 m 1
 175 388 204 375 231 345 c 1
 231 290 193 273 187 223 c 1
 176 223 l 2
 122 223 73 230 30 241 c 1
 32 328 86 389 146 389 c 2
 147 389 l 1
EndSplineSet
Validated: 1
EndChar

StartChar: point
Encoding: 92 63 91
Width: 331
LayerCount: 2
Fore
SplineSet
184 336 m 1
 180 292 150 273 137 237 c 1
 112 231 87 225 58 223 c 1
 44 238 40 256 40 276 c 0
 40 307 50 342 51 375 c 1
 63 383 76 386 88 386 c 0
 125 386 159 356 184 336 c 1
91 534 m 1
 80 546 78 568 78 592 c 2
 78 633 l 1
 78 647 l 1
 113 656 144 682 167 682 c 0
 171 682 174 682 177 680 c 1
 207 708 223 765 223 820 c 0
 223 875 207 928 170 951 c 1
 166 951 l 2
 128 951 116 925 98 905 c 1
 104 873 125 857 131 825 c 1
 121 815 109 811 96 811 c 0
 69 811 41 829 31 845 c 1
 30 854 30 863 30 872 c 0
 30 972 89 1035 161 1035 c 0
 190 1035 220 1025 250 1004 c 1
 286 953 301 894 301 835 c 0
 301 696 214 559 91 534 c 1
EndSplineSet
Validated: 1
EndChar

StartChar: virgule
Encoding: 93 44 92
Width: 160
LayerCount: 2
Fore
SplineSet
120 378 m 1
 127 359 130 340 130 320 c 0
 130 247 88 175 33 152 c 1
 31 162 30 172 30 181 c 0
 30 248 82 308 90 378 c 1
 120 378 l 1
EndSplineSet
Validated: 1
EndChar

StartChar: iminuscule
Encoding: 94 59 93
Width: 204
LayerCount: 2
Fore
SplineSet
133 650 m 1
 134 650 l 2
 163 650 174 640 174 625 c 0
 174 592 117 538 81 538 c 0
 64 538 51 550 51 582 c 0
 51 622 99 648 124 650 c 1
 133 650 l 1
112 359 m 1
 148 346 163 306 163 261 c 0
 163 181 118 84 68 84 c 2
 62 84 l 1
 39 87 30 99 30 113 c 0
 30 136 53 165 73 179 c 1
 88 237 64 334 112 359 c 1
EndSplineSet
Validated: 1
EndChar

StartChar: slash
Encoding: 95 47 94
Width: 419
LayerCount: 2
Fore
SplineSet
389 811 m 1
 328 725 276 630 222 533 c 0
 169 439 135 330 55 260 c 1
 36 270 30 283 30 296 c 0
 30 326 66 362 81 388 c 0
 105 430 131 482 154 525 c 0
 214 638 273 766 359 828 c 1
 370 823 380 818 389 811 c 1
EndSplineSet
Validated: 1
EndChar

StartChar: antiSlash
Encoding: 96 92 95
Width: 299
LayerCount: 2
Fore
SplineSet
269 286 m 1
 262 271 249 265 235 265 c 0
 209 265 177 286 167 305 c 0
 167 307 166 309 166 311 c 0
 166 328 186 327 187 344 c 1
 130 496 70 645 30 814 c 1
 39 816 38 826 49 826 c 2
 53 826 l 1
 69 815 78 795 93 783 c 1
 131 596 205 446 269 286 c 1
EndSplineSet
Validated: 1
EndChar

StartChar: double
Encoding: 97 34 96
Width: 238
LayerCount: 2
Fore
SplineSet
65 920 m 0
 82 920 98 901 102 887 c 0
 104 881 105 866 105 847 c 0
 105 787 94 686 63 686 c 2
 60 686 l 1
 39 692 30 742 30 795 c 0
 30 854 42 915 60 919 c 0
 62 919 63 920 65 920 c 0
172 907 m 0
 186 907 199 897 208 887 c 1
 207 875 207 862 207 849 c 0
 207 827 208 804 208 782 c 0
 208 732 203 688 171 670 c 1
 142 684 133 721 133 762 c 0
 133 809 145 863 150 898 c 1
 157 905 165 907 172 907 c 0
EndSplineSet
Validated: 1
EndChar

StartChar: arrobase
Encoding: 98 64 97
Width: 544
LayerCount: 2
Fore
SplineSet
444 486 m 1
 432 484 421 484 410 484 c 0
 354 484 319 505 296 539 c 1
 270 512 239 492 205 492 c 0
 185 492 165 499 143 515 c 1
 140 530 139 545 139 558 c 0
 139 637 189 681 258 697 c 1
 291 690 309 668 334 654 c 1
 334 641 l 2
 334 586 346 544 401 544 c 1
 436 578 450 616 450 653 c 0
 450 739 371 816 285 816 c 0
 250 816 213 803 181 773 c 1
 125 726 88 609 88 499 c 0
 88 419 107 344 152 300 c 1
 190 289 223 276 257 276 c 0
 268 276 279 278 291 281 c 0
 339 295 358 352 406 357 c 1
 412 350 414 342 414 334 c 0
 414 309 389 284 382 262 c 1
 337 236 284 224 236 224 c 0
 201 224 168 231 143 243 c 0
 64 281 30 389 30 501 c 0
 30 520 31 539 33 558 c 0
 37 599 44 653 57 687 c 0
 74 732 139 820 176 845 c 0
 211 868 249 878 288 878 c 0
 391 878 493 807 511 711 c 0
 513 698 514 685 514 673 c 0
 514 602 479 540 444 486 c 1
277 635 m 1
 272 637 266 638 261 638 c 0
 219 638 178 587 171 539 c 1
 179 536 186 535 193 535 c 0
 237 535 275 583 277 635 c 1
EndSplineSet
Validated: 1
EndChar

StartChar: "ast+AOkA-risque" 
Encoding: 99 42 98
Width: 470
LayerCount: 2
Fore
SplineSet
300 733 m 1
 301 732 303 732 304 732 c 0
 317 732 333 776 348 776 c 0
 350 776 351 775 353 774 c 0
 370 767 376 757 376 745 c 0
 376 718 347 683 347 657 c 1
 351 655 356 654 362 654 c 0
 377 654 396 660 411 660 c 0
 424 660 435 656 440 639 c 1
 437 578 367 583 323 563 c 1
 337 516 361 479 361 418 c 0
 361 407 360 395 358 382 c 1
 347 377 337 375 329 375 c 0
 290 375 277 421 259 446 c 1
 254 443 253 436 253 428 c 2
 253 406 l 2
 253 398 252 391 247 388 c 1
 243 388 240 387 237 387 c 0
 198 387 186 412 186 443 c 0
 186 467 193 495 201 516 c 1
 195 517 190 518 184 518 c 0
 137 518 98 477 43 475 c 1
 34 487 30 497 30 506 c 0
 30 551 123 569 165 587 c 1
 147 639 59 620 31 663 c 1
 39 697 59 708 83 708 c 0
 127 708 187 669 218 657 c 1
 230 716 206 878 258 878 c 0
 269 878 282 872 300 856 c 1
 300 733 l 1
EndSplineSet
Validated: 513
EndChar

StartChar: aring
Encoding: 100 229 99
Width: 845
LayerCount: 2
Fore
SplineSet
459 1120 m 1
 471 1120 l 1
 493 1090 508 1053 508 1001 c 0
 508 987 506 971 504 954 c 1
 482 930 435 919 388 919 c 0
 341 919 294 930 272 954 c 1
 292 1052 342 1119 459 1120 c 1
579 843 m 0
 609 843 640 841 670 838 c 1
 695 773 739 728 804 703 c 1
 811 666 815 631 815 598 c 0
 815 371 657 228 484 228 c 0
 441 228 397 237 355 255 c 1
 357 416 517 541 642 541 c 0
 668 541 693 536 714 524 c 1
 718 544 720 562 720 578 c 0
 720 696 609 703 535 748 c 1
 285 729 152 593 41 434 c 1
 33 458 30 481 30 504 c 0
 30 696 292 843 579 843 c 0
654 435 m 0
 592 434 490 387 490 343 c 0
 490 327 503 312 535 300 c 1
 540 381 671 336 671 421 c 0
 671 425 671 429 670 434 c 1
 665 435 660 435 654 435 c 0
EndSplineSet
Validated: 513
EndChar

StartChar: adieresis
Encoding: 101 228 100
Width: 657
LayerCount: 2
Fore
SplineSet
172 1109 m 0
 224 1108 247 1068 247 1024 c 0
 247 992 235 958 214 939 c 1
 164 967 165 1047 147 1106 c 1
 156 1108 164 1109 172 1109 c 0
447 1039 m 1
 447 1032 l 2
 447 961 386 919 333 919 c 0
 313 919 293 925 280 939 c 1
 303 1005 369 1028 447 1039 c 1
308 876 m 0
 358 876 411 873 462 872 c 1
 569 816 627 680 627 547 c 0
 627 384 539 225 343 225 c 0
 326 225 308 227 290 229 c 1
 275 261 268 293 268 323 c 0
 268 451 396 550 548 572 c 1
 533 694 402 788 268 788 c 0
 217 788 165 774 119 743 c 1
 114 725 111 710 111 697 c 0
 111 589 293 663 293 555 c 0
 293 547 292 539 290 529 c 1
 221 588 69 566 33 658 c 1
 31 674 30 689 30 703 c 0
 30 853 158 876 308 876 c 0
475 450 m 2
 474 450 l 2
 422 450 374 398 374 358 c 0
 374 337 387 320 419 315 c 1
 429 376 490 388 505 444 c 1
 495 448 485 450 475 450 c 2
EndSplineSet
Validated: 513
EndChar

StartChar: "z diacrit+AOkA" 
Encoding: 102 382 101
Width: 519
LayerCount: 2
Fore
SplineSet
316 1036 m 0
 335 1036 356 1024 367 996 c 1
 361 960 339 941 333 905 c 1
 306 892 270 888 242 876 c 1
 207 891 184 917 157 939 c 1
 157 949 l 2
 157 982 167 1004 197 1007 c 1
 219 997 223 970 225 939 c 1
 234 937 242 937 249 937 c 0
 266 937 279 941 294 950 c 1
 282 967 277 982 277 995 c 0
 277 1020 295 1035 316 1036 c 0
236 786 m 1
 242 786 l 1
 322 783 359 726 396 706 c 1
 388 660 337 670 305 655 c 0
 256 632 221 585 191 547 c 1
 196 547 l 2
 245 547 300 578 354 578 c 0
 376 578 398 573 419 558 c 1
 451 521 489 488 489 419 c 0
 489 409 489 399 487 388 c 0
 468 254 344 109 197 109 c 0
 173 109 148 113 123 121 c 0
 89 133 30 176 30 226 c 0
 30 236 33 247 38 257 c 1
 102 224 153 180 216 180 c 0
 235 180 255 184 277 194 c 0
 339 221 411 312 411 397 c 0
 411 433 398 467 367 496 c 1
 352 496 l 2
 292 496 231 477 180 477 c 0
 146 477 117 485 95 513 c 1
 113 578 158 616 197 660 c 1
 181 665 162 666 144 666 c 2
 126 666 l 2
 93 666 61 668 61 701 c 0
 61 734 169 785 236 786 c 1
EndSplineSet
Validated: 513
EndChar

StartChar: scaron
Encoding: 103 353 102
Width: 447
LayerCount: 2
Fore
SplineSet
249 1090 m 0
 260 1090 274 1087 291 1078 c 1
 306 1057 312 1035 312 1011 c 0
 312 961 286 908 266 869 c 1
 237 846 197 835 159 835 c 0
 93 835 30 866 30 917 c 0
 30 920 31 924 31 927 c 0
 35 955 53 966 74 966 c 0
 102 966 138 946 157 919 c 1
 232 926 179 1089 249 1090 c 0
197 751 m 1
 200 751 l 2
 288 751 395 699 417 634 c 1
 417 629 l 2
 417 609 395 611 392 592 c 1
 328 602 306 653 232 653 c 0
 222 653 211 652 199 650 c 1
 229 539 360 518 360 391 c 0
 360 383 359 374 358 365 c 0
 349 290 242 221 155 221 c 0
 150 221 145 221 140 222 c 0
 111 225 40 251 40 303 c 0
 40 316 45 331 56 348 c 1
 83 335 113 328 142 328 c 0
 188 328 232 346 257 382 c 1
 240 498 88 539 81 642 c 1
 81 652 l 2
 81 723 134 750 197 751 c 1
EndSplineSet
Validated: 513
EndChar

StartChar: aogonek
Encoding: 104 261 103
Width: 879
LayerCount: 2
Fore
SplineSet
445 785 m 1
 501 693 506 548 548 442 c 1
 557 442 l 2
 668 442 724 496 818 515 c 1
 821 494 846 495 849 474 c 1
 797 322 551 364 476 235 c 1
 511 173 619 185 673 142 c 1
 673 139 l 2
 673 95 650 73 631 48 c 1
 615 48 l 2
 485 48 413 107 351 173 c 1
 358 266 412 313 445 380 c 1
 445 383 l 2
 445 403 415 392 414 411 c 1
 347 361 259 318 170 318 c 0
 123 318 75 330 30 360 c 1
 69 600 163 785 441 785 c 2
 445 785 l 1
134 401 m 1
 267 412 363 505 363 627 c 0
 363 635 363 642 362 650 c 1
 354 650 l 2
 234 650 163 521 134 401 c 1
EndSplineSet
Validated: 1
EndChar

StartChar: e
Encoding: 105 281 104
Width: 743
LayerCount: 2
Fore
SplineSet
400 639 m 1
 397 476 242 464 135 405 c 1
 172 354 248 336 327 336 c 0
 400 336 476 351 528 373 c 1
 551 348 560 308 569 269 c 1
 539 222 467 215 440 164 c 1
 440 159 l 2
 440 105 473 90 518 90 c 0
 570 90 637 110 688 110 c 0
 697 110 705 109 713 108 c 1
 695 39 608 5 523 5 c 0
 444 5 367 34 344 92 c 1
 347 142 355 188 368 229 c 1
 238 271 75 278 30 405 c 1
 49 547 163 660 299 660 c 0
 332 660 366 653 400 639 c 1
EndSplineSet
Validated: 1
EndChar

StartChar: c
Encoding: 106 263 105
Width: 518
LayerCount: 2
Fore
SplineSet
355 1053 m 0
 372 1053 391 1050 409 1044 c 1
 356 981 287 872 196 872 c 0
 185 872 174 874 163 877 c 1
 183 966 261 1052 355 1053 c 0
302 769 m 0
 378 769 450 732 488 647 c 1
 474 631 458 625 442 625 c 0
 399 625 353 669 322 687 c 1
 200 684 129 582 129 487 c 0
 129 409 176 335 282 322 c 1
 318 336 357 347 385 370 c 1
 422 347 472 336 480 283 c 1
 438 241 384 224 329 224 c 0
 201 224 64 318 36 425 c 1
 32 447 30 468 30 488 c 0
 30 658 171 768 302 769 c 0
EndSplineSet
Validated: 1
EndChar

StartChar: n
Encoding: 107 324 106
Width: 660
LayerCount: 2
Fore
SplineSet
388 1013 m 2
 395 1013 402 1013 409 1012 c 1
 382 933 302 824 202 824 c 0
 197 824 193 825 188 825 c 1
 188 828 l 2
 188 921 283 1013 386 1013 c 2
 388 1013 l 2
43 723 m 1
 94 723 l 1
 122 700 126 653 145 621 c 1
 198 642 229 685 273 714 c 1
 319 706 366 700 409 689 c 1
 425 614 453 551 453 460 c 0
 453 446 452 432 451 417 c 1
 476 358 630 362 630 312 c 0
 630 284 601 276 563 276 c 0
 519 276 463 286 426 290 c 1
 361 372 343 501 324 629 c 1
 255 588 195 537 145 477 c 1
 124 382 158 232 52 222 c 1
 37 299 30 410 30 514 c 0
 30 593 34 669 43 723 c 1
EndSplineSet
Validated: 1
EndChar

StartChar: Aogonek
Encoding: 108 260 107
Width: 875
LayerCount: 2
Fore
SplineSet
747 149 m 1
 665 141 616 100 612 14 c 1
 636 -8 646 -38 686 -47 c 0
 692 -49 698 -49 704 -49 c 0
 743 -49 790 -28 818 -28 c 0
 834 -28 845 -35 845 -56 c 0
 845 -94 764 -122 692 -122 c 0
 672 -122 652 -119 636 -115 c 1
 594 -101 589 -50 551 -47 c 1
 542 -23 539 -1 539 19 c 0
 539 139 666 200 666 302 c 0
 666 374 618 430 618 520 c 2
 618 535 l 1
 488 515 365 487 245 455 c 1
 199 367 154 277 134 161 c 1
 96 145 99 92 47 92 c 0
 43 92 36 92 30 94 c 1
 30 97 l 2
 30 178 78 265 116 358 c 0
 182 524 261 691 354 841 c 0
 408 928 470 1053 563 1079 c 1
 567 1079 l 2
 612 1079 660 863 666 817 c 0
 678 718 680 635 692 541 c 0
 707 421 755 323 755 218 c 0
 755 196 753 173 747 149 c 1
275 547 m 1
 383 577 525 574 612 626 c 1
 596 748 583 876 551 982 c 1
 419 877 344 713 275 547 c 1
EndSplineSet
Validated: 1
EndChar

StartChar: E
Encoding: 109 280 108
Width: 1092
LayerCount: 2
Fore
SplineSet
1017 926 m 1
 999 904 981 895 963 895 c 0
 918 895 873 949 822 959 c 0
 786 967 750 970 712 970 c 0
 456 970 171 811 171 580 c 1
 201 571 233 566 267 566 c 0
 369 566 488 599 584 599 c 0
 658 599 717 580 747 514 c 1
 733 480 706 470 676 470 c 0
 643 470 606 481 573 481 c 0
 462 479 337 445 232 445 c 0
 211 445 191 446 171 449 c 1
 153 391 150 318 150 242 c 1
 201 228 254 223 306 223 c 0
 478 223 654 280 806 280 c 0
 876 280 940 268 996 232 c 1
 986 104 779 174 747 68 c 1
 771 -80 1062 41 1062 -131 c 0
 1062 -135 1060 -142 1060 -148 c 1
 1016 -162 974 -166 934 -166 c 0
 756 -166 612 -52 573 101 c 1
 524 101 l 1
 392 101 l 2
 270 101 151 104 51 124 c 1
 37 212 30 304 30 394 c 0
 30 626 83 848 236 959 c 0
 323 1022 532 1087 714 1087 c 0
 861 1087 989 1044 1017 926 c 1
EndSplineSet
Validated: 1
EndChar

StartChar: N
Encoding: 110 323 109
Width: 781
LayerCount: 2
Fore
SplineSet
381 1312 m 0
 405 1312 427 1302 447 1272 c 1
 369 1180 287 1090 139 1069 c 1
 131 1079 129 1090 129 1100 c 0
 129 1142 177 1187 219 1219 c 0
 267 1257 327 1312 381 1312 c 0
588 990 m 1
 606 990 l 1
 694 957 664 864 676 770 c 0
 691 644 732 470 747 304 c 0
 750 277 751 248 751 220 c 0
 751 138 736 55 685 13 c 1
 567 100 499 240 412 356 c 0
 324 473 245 597 157 709 c 1
 159 682 159 655 159 628 c 0
 159 542 156 452 156 364 c 2
 156 311 l 2
 156 293 156 276 157 259 c 0
 160 207 172 150 172 100 c 0
 172 61 165 28 139 4 c 1
 82 24 61 104 51 172 c 1
 37 256 30 357 30 457 c 0
 30 621 50 785 96 884 c 1
 261 834 325 650 421 506 c 0
 487 406 558 320 633 234 c 1
 629 402 571 616 571 818 c 0
 571 876 576 934 588 990 c 1
EndSplineSet
Validated: 1
EndChar

StartChar: z
Encoding: 111 378 110
Width: 535
LayerCount: 2
Fore
SplineSet
306 909 m 0
 326 909 339 893 351 877 c 1
 308 822 243 755 165 755 c 1
 165 757 l 2
 165 794 271 909 306 909 c 0
307 672 m 0
 347 672 386 666 422 646 c 1
 349 509 227 421 146 292 c 1
 236 296 325 349 413 349 c 0
 444 349 474 343 505 325 c 1
 496 266 404 274 332 260 c 0
 266 247 201 221 148 221 c 0
 111 221 79 234 56 273 c 1
 112 404 217 484 293 594 c 1
 245 583 181 573 119 573 c 0
 88 573 58 575 30 581 c 1
 30 633 l 1
 126 636 220 671 307 672 c 0
EndSplineSet
Validated: 1
EndChar

StartChar: z
Encoding: 112 377 111
Width: 947
LayerCount: 2
Fore
SplineSet
455 1366 m 0
 473 1366 491 1363 509 1353 c 1
 452 1290 371 1166 275 1166 c 0
 257 1166 239 1170 219 1180 c 1
 279 1240 361 1366 455 1366 c 0
776 1016 m 2
 822 1016 870 1010 915 992 c 1
 915 986 917 980 917 974 c 0
 917 872 822 861 789 792 c 1
 804 772 845 744 845 717 c 0
 845 705 837 694 816 684 c 1
 807 684 l 2
 759 684 774 747 753 774 c 1
 654 764 732 540 636 540 c 2
 635 540 l 1
 596 542 590 566 581 612 c 1
 399 500 270 332 183 124 c 1
 211 109 241 105 273 105 c 0
 375 105 494 162 590 170 c 0
 605 172 625 172 645 172 c 0
 701 172 761 162 771 106 c 1
 642 62 459 -4 294 -4 c 0
 214 -4 138 10 75 52 c 1
 69 78 66 101 66 123 c 0
 66 229 131 312 201 396 c 0
 348 573 558 750 716 892 c 1
 521 876 300 809 84 783 c 1
 72 810 42 821 30 848 c 1
 66 929 143 912 255 920 c 0
 426 932 605 1016 771 1016 c 2
 776 1016 l 2
EndSplineSet
Validated: 1
EndChar

StartChar: s
Encoding: 113 347 112
Width: 440
LayerCount: 2
Fore
SplineSet
377 1062 m 0
 391 1062 403 1056 410 1041 c 1
 360 965 304 897 219 856 c 1
 208 869 202 883 202 901 c 0
 202 907 203 913 204 920 c 0
 208 945 316 1062 377 1062 c 0
254 739 m 2
 290 739 328 723 353 693 c 1
 351 658 330 647 304 647 c 0
 282 647 258 655 240 665 c 1
 244 555 372 480 372 359 c 0
 372 333 367 305 353 275 c 1
 317 242 264 226 213 226 c 0
 121 226 30 275 30 357 c 0
 30 377 35 400 48 424 c 1
 100 410 101 345 133 310 c 1
 155 307 177 304 199 304 c 0
 242 304 280 314 297 346 c 1
 273 461 202 529 148 615 c 1
 147 622 147 629 147 636 c 0
 147 705 197 739 252 739 c 2
 254 739 l 2
EndSplineSet
Validated: 1
EndChar

StartChar: S
Encoding: 114 346 113
Width: 564
LayerCount: 2
Fore
SplineSet
352 1163 m 0
 368 1163 376 1155 381 1144 c 1
 344 1066 247 995 151 956 c 1
 148 964 146 970 146 977 c 0
 146 1017 197 1044 224 1065 c 0
 267 1099 307 1130 345 1162 c 1
 348 1162 350 1163 352 1163 c 0
305 880 m 0
 329 880 354 876 381 865 c 1
 392 845 413 827 413 807 c 0
 413 798 409 789 399 780 c 1
 394 778 390 777 385 777 c 0
 355 777 330 811 296 811 c 0
 254 811 223 777 187 762 c 1
 225 647 357 624 442 556 c 1
 472 498 534 457 534 384 c 0
 534 379 534 374 533 369 c 0
 522 267 395 224 268 224 c 0
 193 224 118 239 66 266 c 1
 50 302 30 334 30 387 c 1
 49 393 49 417 74 417 c 2
 78 417 l 1
 105 392 103 336 127 308 c 1
 161 299 200 295 238 295 c 0
 349 295 457 331 457 402 c 0
 457 427 444 456 412 490 c 0
 362 543 265 565 200 617 c 0
 158 651 129 692 129 749 c 0
 129 768 132 788 139 811 c 1
 188 843 240 879 305 880 c 0
EndSplineSet
Validated: 1
EndChar

StartChar: Z
Encoding: 115 381 114
Width: 875
LayerCount: 2
Fore
SplineSet
480 1312 m 0
 520 1312 556 1282 576 1260 c 1
 579 1239 581 1218 581 1200 c 0
 581 1018 457 961 275 961 c 2
 249 961 l 1
 222 1005 176 1080 176 1130 c 0
 176 1157 190 1178 228 1180 c 1
 231 1180 l 2
 297 1180 296 1066 365 1066 c 0
 373 1066 380 1067 389 1070 c 1
 431 1103 446 1152 446 1214 c 0
 446 1241 442 1270 438 1300 c 1
 453 1309 466 1312 480 1312 c 0
765 823 m 1
 801 784 815 743 815 704 c 0
 815 600 716 497 636 404 c 0
 552 306 462 229 408 166 c 1
 414 164 420 164 426 164 c 0
 522 164 648 268 746 268 c 0
 785 268 818 251 845 206 c 1
 817 140 702 110 606 78 c 0
 510 46 411 4 323 4 c 0
 271 4 221 17 179 56 c 1
 299 306 560 420 666 684 c 1
 654 684 l 2
 585 684 509 694 428 694 c 0
 414 694 403 692 389 692 c 0
 313 688 223 656 147 656 c 0
 102 656 62 669 30 703 c 1
 92 805 271 798 417 812 c 1
 533 822 655 821 765 823 c 1
EndSplineSet
Validated: 1
EndChar

StartChar: S
Encoding: 116 352 115
Width: 494
LayerCount: 2
Fore
SplineSet
253 1108 m 1
 254 1126 266 1149 295 1150 c 0
 322 1150 392 1067 392 1007 c 2
 392 1000 l 1
 386 942 297 867 229 867 c 0
 154 867 79 941 72 994 c 0
 71 998 71 1002 71 1006 c 0
 71 1044 90 1101 120 1102 c 1
 122 1102 l 2
 150 1102 156 1086 156 1064 c 0
 156 1044 151 1021 151 1000 c 0
 151 985 154 972 163 964 c 1
 185 948 227 952 247 934 c 1
 270 952 289 971 307 994 c 1
 307 1002 l 2
 307 1074 253 1055 253 1103 c 2
 253 1108 l 1
220 846 m 0
 312 846 410 793 446 729 c 1
 439 706 420 695 404 681 c 1
 367 727 300 776 225 776 c 0
 201 776 176 771 151 759 c 1
 175 558 464 561 464 365 c 0
 464 343 460 317 452 289 c 1
 405 245 333 223 260 223 c 0
 185 223 109 246 60 289 c 1
 52 311 30 348 30 378 c 0
 30 394 36 407 54 416 c 1
 102 403 110 350 139 319 c 1
 179 305 227 294 272 294 c 0
 326 294 374 310 398 355 c 1
 357 545 87 532 87 751 c 0
 87 765 88 779 90 795 c 1
 125 831 172 846 220 846 c 0
EndSplineSet
Validated: 1
EndChar

StartChar: lslash
Encoding: 117 322 116
Width: 457
LayerCount: 2
Fore
SplineSet
337 1302 m 1
 357 1273 363 1232 363 1188 c 0
 363 1134 354 1073 354 1018 c 0
 354 947 368 885 427 857 c 1
 328 712 383 429 336 236 c 1
 323 228 308 224 294 224 c 0
 285 224 274 226 265 229 c 1
 258 268 256 309 256 350 c 0
 256 430 264 514 264 597 c 0
 264 620 264 643 262 666 c 1
 204 656 140 596 86 596 c 0
 66 596 46 605 30 628 c 1
 97 738 250 740 267 893 c 0
 270 921 271 949 271 977 c 0
 271 1034 267 1090 267 1149 c 0
 267 1190 268 1234 276 1280 c 1
 291 1291 305 1302 332 1302 c 2
 337 1302 l 1
EndSplineSet
Validated: 513
EndChar

StartChar: "L barr+AOkA majuscule" 
Encoding: 118 321 117
Width: 766
LayerCount: 2
Fore
SplineSet
273 657 m 1
 294 660 318 675 340 675 c 0
 350 675 360 672 368 663 c 1
 361 607 304 600 273 568 c 1
 270 526 266 472 266 421 c 0
 266 378 269 338 279 307 c 1
 304 302 340 289 371 289 c 2
 374 289 l 1
 447 292 550 342 632 342 c 0
 674 342 711 329 736 289 c 1
 725 268 703 264 681 264 c 0
 669 264 657 265 646 265 c 2
 635 265 l 1
 524 254 403 223 275 223 c 0
 263 223 250 223 238 224 c 1
 200 247 191 296 191 351 c 0
 191 400 198 454 198 500 c 0
 198 514 198 526 196 538 c 1
 150 527 113 454 71 454 c 0
 58 454 44 461 30 479 c 1
 55 539 121 559 167 598 c 1
 223 657 184 810 232 877 c 1
 238 877 l 2
 258 877 257 858 273 853 c 1
 273 657 l 1
EndSplineSet
Validated: 513
EndChar

StartChar: Aring
Encoding: 119 197 118
Width: 487
LayerCount: 2
Fore
SplineSet
318 1134 m 0
 347 1134 376 1124 400 1105 c 1
 400 1093 l 2
 400 1002 363 974 305 974 c 0
 275 974 239 982 201 992 c 1
 199 1003 198 1012 198 1022 c 0
 198 1094 257 1134 318 1134 c 0
324 1084 m 0
 297 1083 261 1054 258 1048 c 0
 255 1043 254 1040 254 1037 c 0
 254 1031 259 1028 266 1028 c 0
 291 1028 345 1056 345 1072 c 0
 345 1074 344 1076 343 1077 c 0
 338 1082 332 1084 324 1084 c 0
258 878 m 1
 478 751 365 447 457 224 c 1
 366 245 342 333 342 445 c 0
 342 457 343 468 343 480 c 1
 329 483 317 484 306 484 c 0
 243 484 216 447 153 447 c 0
 142 447 130 448 116 451 c 1
 93 444 89 417 89 387 c 0
 89 373 90 357 90 343 c 0
 90 308 85 278 50 278 c 0
 44 278 38 279 30 281 c 1
 30 308 l 2
 30 574 174 696 258 878 c 1
267 765 m 2
 264 765 261 764 258 764 c 1
 203 705 188 606 144 537 c 1
 151 537 159 538 167 538 c 0
 192 538 218 536 243 536 c 0
 296 536 341 544 343 594 c 1
 313 601 312 636 312 672 c 2
 312 686 l 2
 312 726 310 765 269 765 c 2
 267 765 l 2
EndSplineSet
Validated: 513
EndChar

StartChar: Ccedilla
Encoding: 120 199 119
Width: 990
LayerCount: 2
Fore
SplineSet
688 1022 m 1
 688 1004 l 2
 688 950 666 932 636 932 c 0
 592 932 534 970 506 994 c 1
 275 974 134 758 134 526 c 0
 134 442 151 358 190 278 c 1
 240 233 308 214 380 214 c 0
 480 214 591 251 681 296 c 0
 763 336 837 417 918 417 c 0
 932 417 946 414 960 410 c 1
 933 288 777 257 681 182 c 0
 600 118 552 36 506 -54 c 1
 558 -92 630 -111 672 -159 c 1
 657 -203 632 -218 602 -218 c 0
 538 -218 452 -148 418 -116 c 1
 418 -96 l 2
 418 10 464 75 524 120 c 1
 502 126 478 128 454 128 c 0
 403 128 353 118 303 118 c 0
 276 118 250 121 226 129 c 0
 156 153 143 225 86 252 c 1
 48 320 30 396 30 477 c 0
 30 717 178 987 348 1074 c 0
 382 1092 425 1100 470 1100 c 0
 556 1100 644 1070 688 1022 c 1
EndSplineSet
Validated: 513
EndChar

StartChar: Adieresis
Encoding: 121 196 120
Width: 610
LayerCount: 2
Fore
SplineSet
375 1150 m 1
 439 1137 456 1078 456 1016 c 0
 456 967 445 917 440 888 c 1
 383 892 373 941 373 1002 c 0
 373 1038 377 1080 377 1116 c 0
 377 1128 376 1139 375 1150 c 1
224 1053 m 1
 322 1053 l 1
 309 994 310 921 238 921 c 0
 234 921 229 921 224 922 c 1
 224 1053 l 1
294 878 m 1
 360 878 l 1
 486 740 462 452 580 306 c 1
 570 299 561 296 552 296 c 0
 494 296 455 427 426 482 c 1
 406 483 387 484 368 484 c 0
 284 484 214 469 162 438 c 1
 164 427 165 417 165 406 c 0
 165 331 123 257 118 196 c 1
 118 189 l 2
 118 166 127 147 127 130 c 0
 127 122 125 114 118 108 c 1
 112 105 107 104 102 104 c 0
 78 104 68 135 68 167 c 0
 68 203 80 240 96 240 c 1
 94 255 93 269 93 282 c 0
 93 335 108 373 118 416 c 1
 117 431 114 436 109 436 c 0
 98 436 78 410 52 410 c 0
 45 410 38 411 30 416 c 1
 30 421 l 2
 30 478 85 479 140 482 c 1
 161 644 231 758 294 878 c 1
327 812 m 2
 320 812 l 1
 316 812 l 1
 255 734 215 634 184 526 c 1
 426 526 l 1
 427 535 427 544 427 552 c 0
 427 654 385 713 360 790 c 0
 356 804 345 812 327 812 c 2
EndSplineSet
Validated: 1
EndChar

StartChar: C
Encoding: 122 262 121
Width: 1085
LayerCount: 2
Fore
SplineSet
710 1484 m 0
 740 1484 769 1472 797 1445 c 1
 638 1303 442 1203 332 1001 c 1
 324 999 317 1000 309 1000 c 0
 264 1000 246 1027 228 1054 c 1
 288 1184 368 1257 497 1362 c 0
 560 1413 635 1484 710 1484 c 0
650 953 m 0
 688 953 726 949 765 940 c 1
 797 883 849 844 879 784 c 1
 849 715 847 616 755 608 c 1
 749 616 747 625 747 635 c 0
 747 657 758 688 758 718 c 0
 758 727 757 734 755 743 c 1
 719 776 680 805 632 826 c 1
 374 752 164 581 164 275 c 2
 164 250 l 2
 164 242 164 234 165 226 c 1
 245 136 410 94 558 92 c 1
 563 92 l 2
 765 92 897 190 972 318 c 1
 1016 316 1025 283 1055 268 c 1
 1011 64 801 -28 581 -28 c 0
 347 -28 102 74 32 246 c 1
 30 262 30 278 30 293 c 0
 30 401 54 491 104 578 c 0
 208 758 406 950 650 953 c 0
EndSplineSet
Validated: 1
EndChar

StartChar: o
Encoding: 123 243 122
Width: 566
LayerCount: 2
Fore
SplineSet
454 1013 m 0
 475 1013 502 1005 502 983 c 0
 502 957 381 895 371 889 c 0
 318 854 276 832 240 802 c 0
 171 745 158 669 56 662 c 1
 43 672 43 695 30 706 c 1
 76 781 204 896 292 959 c 0
 310 972 398 1013 454 1013 c 0
320 633 m 0
 354 633 389 626 423 610 c 0
 456 594 536 502 536 406 c 0
 536 389 533 373 528 356 c 0
 504 282 367 221 242 221 c 0
 194 221 147 230 109 251 c 1
 67 289 49 335 49 381 c 0
 49 505 178 633 320 633 c 0
290 520 m 0
 266 520 240 517 213 513 c 1
 188 463 144 431 117 382 c 1
 147 330 207 307 266 307 c 0
 353 307 440 357 441 444 c 1
 414 501 361 520 290 520 c 0
EndSplineSet
Validated: 1
EndChar

StartChar: O
Encoding: 124 211 123
Width: 1214
LayerCount: 2
Fore
SplineSet
662 1514 m 0
 688 1514 712 1506 726 1474 c 1
 674 1366 519 1204 367 1204 c 0
 351 1204 332 1206 316 1210 c 1
 326 1279 548 1496 630 1510 c 0
 640 1512 650 1514 662 1514 c 0
486 948 m 0
 586 948 735 931 835 921 c 1
 1031 899 1074 821 1184 680 c 1
 1184 654 l 2
 1184 400 1139 231 979 102 c 0
 883 24 661 -38 466 -38 c 0
 367 -38 274 -23 208 16 c 0
 106 76 30 225 30 399 c 0
 30 451 37 504 52 560 c 0
 94 710 279 925 426 945 c 0
 442 948 464 948 486 948 c 0
662 818 m 1
 400 815 162 675 162 375 c 0
 162 339 164 300 172 258 c 1
 230 136 358 84 498 84 c 0
 756 84 1057 264 1057 528 c 0
 1057 550 1055 574 1051 596 c 0
 1039 658 979 690 955 764 c 1
 865 798 767 818 673 818 c 2
 662 818 l 1
EndSplineSet
Validated: 1
EndChar

StartChar: "+AOkA majuscule" 
Encoding: 125 201 124
Width: 739
LayerCount: 2
Fore
SplineSet
670 1214 m 1
 668 1121 546 1130 435 1108 c 1
 365 1093 288 1060 231 1060 c 0
 207 1060 187 1067 171 1082 c 1
 207 1160 339 1143 435 1161 c 1
 519 1173 576 1212 670 1214 c 1
181 1004 m 1
 353 964 580 975 709 891 c 1
 675 861 638 850 598 850 c 0
 510 850 408 902 298 902 c 0
 272 902 246 899 219 891 c 1
 153 861 142 776 142 682 c 0
 142 631 145 576 145 525 c 2
 145 501 l 2
 145 492 145 484 144 477 c 1
 164 481 186 482 210 482 c 0
 276 482 355 471 421 471 c 0
 481 471 532 480 558 514 c 1
 567 500 571 489 571 477 c 0
 571 384 279 373 144 363 c 1
 144 176 l 1
 183 116 243 98 312 98 c 0
 416 98 538 140 646 140 c 0
 655 140 663 138 672 138 c 1
 639 38 521 22 387 22 c 0
 327 22 265 26 205 26 c 0
 184 26 164 26 144 24 c 1
 64 118 30 279 30 447 c 0
 30 665 88 892 181 1004 c 1
EndSplineSet
Validated: 513
EndChar

StartChar: "+AOgA majuscule" 
Encoding: 126 200 125
Width: 709
LayerCount: 2
Fore
SplineSet
573 1011 m 1
 577 1011 l 2
 629 1011 667 986 679 896 c 1
 658 898 641 899 621 899 c 0
 351 899 254 725 160 549 c 1
 304 462 580 509 679 377 c 1
 659 363 638 357 612 357 c 0
 516 357 382 434 229 434 c 0
 193 434 155 429 117 419 c 1
 115 405 114 392 114 380 c 0
 114 248 206 208 246 116 c 1
 277 116 l 2
 322 116 370 114 415 114 c 0
 489 114 556 120 592 159 c 1
 613 185 623 195 625 195 c 1
 625 187 567 102 549 74 c 1
 487 41 429 27 372 27 c 0
 228 27 104 115 30 203 c 1
 30 549 l 1
 123 715 264 836 376 983 c 1
 446 986 517 1009 573 1011 c 1
219 1202 m 2
 288 1202 364 1166 432 1148 c 0
 498 1130 622 1153 625 1065 c 1
 484 1107 249 1055 213 1202 c 1
 219 1202 l 2
EndSplineSet
Validated: 513
EndChar

StartChar: "+AOoA majuscule" 
Encoding: 127 202 126
Width: 707
LayerCount: 2
Fore
SplineSet
408 1406 m 1
 500 1406 l 1
 527 1380 531 1333 531 1281 c 0
 531 1251 530 1221 530 1191 c 1
 527 1183 527 1172 527 1162 c 0
 527 1130 534 1091 534 1059 c 0
 534 1027 526 1004 494 1004 c 0
 486 1004 479 1003 470 1006 c 1
 470 1314 l 1
 348 1251 329 1087 255 976 c 1
 245 997 242 1019 242 1040 c 0
 242 1160 378 1288 408 1406 c 1
459 970 m 0
 551 970 624 952 624 860 c 0
 624 845 622 828 618 810 c 1
 564 836 517 848 473 848 c 0
 285 848 189 636 147 458 c 1
 174 425 204 412 237 412 c 0
 307 412 390 466 480 466 c 0
 500 466 519 464 539 458 c 1
 463 340 236 368 108 300 c 1
 106 292 107 286 107 278 c 0
 107 220 155 208 155 150 c 0
 155 138 153 123 147 105 c 1
 213 96 270 90 321 90 c 0
 456 90 552 126 657 222 c 1
 671 198 677 178 677 158 c 0
 677 22 369 -14 186 -14 c 1
 128 32 76 86 30 144 c 1
 30 152 l 2
 30 540 146 814 383 966 c 1
 410 968 435 970 459 970 c 0
EndSplineSet
Validated: 513
EndChar

StartChar: "+AOsA majuscule" 
Encoding: 128 203 127
Width: 965
LayerCount: 2
Fore
SplineSet
791 1387 m 1
 805 1354 810 1323 810 1291 c 0
 810 1156 692 1050 587 1050 c 0
 566 1050 547 1054 527 1063 c 1
 527 1066 l 2
 527 1214 643 1307 791 1387 c 1
240 1338 m 2
 242 1338 l 2
 350 1338 413 1219 413 1113 c 0
 413 1079 407 1043 392 1015 c 1
 270 1036 216 1197 135 1303 c 1
 174 1327 208 1338 240 1338 c 2
573 972 m 0
 755 972 887 924 935 792 c 1
 914 747 896 730 878 730 c 0
 827 730 778 858 692 858 c 0
 680 858 667 855 653 849 c 1
 347 798 218 567 143 283 c 1
 265 388 446 435 653 453 c 1
 589 311 401 289 200 283 c 1
 210 145 348 103 507 103 c 0
 666 103 845 145 935 171 c 1
 878 49 697 -12 513 -12 c 0
 277 -12 33 87 30 283 c 1
 46 625 291 737 426 961 c 1
 478 967 527 972 573 972 c 0
EndSplineSet
Validated: 513
EndChar

StartChar: i
Encoding: 129 207 128
Width: 354
LayerCount: 2
Fore
SplineSet
81 1310 m 0
 126 1310 145 1266 145 1220 c 0
 145 1186 135 1151 117 1130 c 1
 73 1160 75 1244 59 1307 c 1
 67 1309 73 1310 81 1310 c 0
324 1236 m 1
 324 1230 l 2
 324 1154 269 1109 223 1109 c 0
 205 1109 189 1115 177 1130 c 1
 198 1199 255 1224 324 1236 c 1
159 975 m 1
 222 861 239 620 239 404 c 0
 239 227 227 65 223 9 c 1
 83 79 30 267 30 465 c 0
 30 659 83 863 159 975 c 1
EndSplineSet
Validated: 1
EndChar

StartChar: i
Encoding: 130 206 129
Width: 382
LayerCount: 2
Fore
SplineSet
148 1281 m 1
 280 1257 296 1120 352 1020 c 1
 346 1020 l 2
 241 1020 256 1140 206 1194 c 1
 198 1196 191 1196 185 1196 c 0
 99 1196 138 1076 52 1076 c 0
 46 1076 38 1075 30 1077 c 1
 42 1171 92 1230 148 1281 c 1
138 988 m 2
 143 988 l 2
 235 988 257 920 257 828 c 0
 257 735 233 619 233 526 c 0
 233 493 236 465 244 441 c 1
 244 435 l 2
 244 303 344 198 344 105 c 0
 344 73 332 43 304 15 c 1
 140 156 96 368 96 600 c 0
 96 726 110 858 122 987 c 1
 128 987 132 988 138 988 c 2
EndSplineSet
Validated: 1
EndChar

StartChar: o
Encoding: 131 212 130
Width: 1350
LayerCount: 2
Fore
SplineSet
501 1305 m 1
 703 1305 l 1
 763 1285 774 1249 774 1210 c 0
 774 1189 771 1166 771 1144 c 1
 765 1138 763 1131 763 1122 c 0
 763 1098 780 1071 780 1047 c 0
 780 1023 762 1004 690 1004 c 0
 675 1004 657 1004 636 1006 c 1
 636 1236 l 1
 369 1190 327 1066 165 984 c 1
 144 999 133 1014 133 1030 c 0
 133 1120 437 1215 501 1305 c 1
840 934 m 1
 1018 932 1192 882 1320 772 c 1
 1281 192 899 9 357 9 c 0
 273 9 183 13 91 21 c 1
 49 120 30 211 30 297 c 0
 30 695 444 934 834 934 c 2
 840 934 l 1
781 752 m 0
 475 752 163 594 163 210 c 2
 163 188 l 1
 233 182 303 177 367 177 c 0
 760 177 1041 308 1103 690 c 1
 1007 730 893 752 781 752 c 0
EndSplineSet
Validated: 1
EndChar

StartChar: O
Encoding: 132 214 131
Width: 1003
LayerCount: 2
Fore
SplineSet
442 1439 m 1
 558 1417 588 1306 588 1194 c 0
 588 1107 570 1019 561 968 c 1
 457 976 439 1067 439 1178 c 0
 439 1241 445 1313 445 1376 c 0
 445 1398 444 1419 442 1439 c 1
30 1380 m 1
 207 1380 l 1
 183 1274 185 1144 55 1144 c 0
 47 1144 39 1143 30 1145 c 1
 30 1380 l 1
442 910 m 1
 768 846 973 684 973 438 c 0
 973 176 727 -19 465 -19 c 0
 335 -19 198 29 88 143 c 1
 79 194 76 240 76 282 c 0
 76 614 314 706 442 910 c 1
568 728 m 2
 565 728 l 2
 363 728 171 504 171 292 c 0
 171 241 181 189 207 143 c 1
 678 143 l 1
 735 251 804 349 804 514 c 0
 804 546 802 578 796 614 c 1
 726 694 646 728 568 728 c 2
EndSplineSet
Validated: 1
EndChar

StartChar: A
Encoding: 133 192 132
Width: 1158
LayerCount: 2
Fore
SplineSet
245 1295 m 2
 341 1295 451 1244 545 1218 c 0
 638 1192 812 1226 816 1102 c 1
 618 1160 286 1088 235 1295 c 1
 245 1295 l 2
461 1019 m 1
 491 1013 519 1010 549 1004 c 1
 750 924 758 710 833 542 c 1
 915 317 1128 184 1128 -100 c 2
 1128 -103 l 1
 930 -34 941 179 837 314 c 1
 697 352 571 368 457 368 c 0
 365 368 281 357 203 336 c 1
 122 322 169 126 77 126 c 0
 65 126 48 129 30 138 c 1
 81 566 289 767 461 1019 c 1
481 880 m 1
 448 732 247 604 247 474 c 0
 247 454 253 436 263 416 c 1
 329 468 420 484 522 484 c 0
 588 484 657 478 727 470 c 1
 701 646 676 822 481 880 c 1
EndSplineSet
Validated: 1
EndChar

StartChar: U
Encoding: 134 219 133
Width: 1006
LayerCount: 2
Fore
SplineSet
446 1397 m 1
 650 1361 675 1148 761 992 c 1
 752 992 l 2
 590 992 614 1176 536 1262 c 1
 524 1265 513 1265 503 1265 c 0
 373 1265 428 1079 298 1079 c 0
 288 1079 276 1079 264 1082 c 1
 282 1229 359 1317 446 1397 c 1
64 1019 m 0
 162 1019 184 959 184 875 c 0
 184 805 168 717 168 630 c 0
 168 552 181 474 226 410 c 1
 286 365 320 284 336 174 c 1
 357 178 377 180 395 180 c 0
 464 180 515 155 584 155 c 0
 623 155 666 162 722 188 c 1
 797 264 803 387 803 515 c 2
 803 584 l 2
 803 684 806 782 845 857 c 1
 941 767 976 617 976 467 c 0
 976 295 930 119 882 26 c 1
 810 -4 752 -13 700 -13 c 0
 626 -13 562 4 488 4 c 0
 454 4 416 0 374 -12 c 1
 182 184 30 541 30 887 c 0
 30 931 34 974 38 1018 c 1
 47 1020 56 1019 64 1019 c 0
EndSplineSet
Validated: 1
EndChar

StartChar: U
Encoding: 135 220 134
Width: 888
LayerCount: 2
Fore
SplineSet
628 1376 m 1
 633 1376 l 1
 683 1373 705 1308 705 1233 c 0
 705 1140 671 1031 614 1010 c 1
 587 1060 552 1100 514 1139 c 1
 556 1211 538 1374 628 1376 c 1
294 1158 m 2
 296 1158 l 1
 352 1156 355 1087 375 1029 c 1
 359 1015 342 1011 327 1011 c 0
 279 1011 240 1065 240 1109 c 0
 240 1136 256 1158 294 1158 c 2
50 977 m 1
 51 977 l 2
 145 977 171 934 171 866 c 0
 171 788 136 678 136 572 c 0
 136 518 146 464 174 416 c 1
 224 371 250 293 258 194 c 1
 263 195 268 195 274 195 c 2
 290 195 l 2
 370 195 418 156 498 156 c 0
 528 156 564 162 606 177 c 1
 752 303 665 611 765 773 c 1
 833 698 858 590 858 476 c 0
 858 300 797 113 740 21 c 1
 686 3 642 -3 603 -3 c 0
 510 -3 444 32 351 32 c 0
 329 32 305 28 278 24 c 1
 134 198 30 485 30 770 c 0
 30 840 36 909 50 977 c 1
EndSplineSet
Validated: 1
EndChar

StartChar: a
Encoding: 136 225 135
Width: 594
LayerCount: 2
Fore
SplineSet
519 966 m 1
 518 888 413 896 319 877 c 0
 259 865 195 838 147 838 c 0
 127 838 110 842 96 855 c 1
 127 921 238 906 319 921 c 1
 391 931 439 964 519 966 c 1
354 769 m 2
 385 769 416 766 445 761 c 1
 480 691 541 646 564 564 c 1
 539 384 411 223 243 223 c 0
 207 223 168 230 129 247 c 1
 128 260 127 271 127 283 c 0
 127 496 312 524 406 643 c 1
 377 675 331 688 281 688 c 0
 179 688 63 632 50 564 c 1
 36 584 30 602 30 620 c 0
 30 709 193 769 351 769 c 2
 354 769 l 2
445 524 m 1
 323 495 207 462 207 311 c 0
 207 303 207 295 208 287 c 1
 352 301 431 380 445 524 c 1
EndSplineSet
Validated: 1
EndChar

StartChar: A
Encoding: 137 193 136
Width: 649
LayerCount: 2
Fore
SplineSet
467 1004 m 1
 467 954 399 958 338 946 c 0
 299 938 258 921 227 921 c 0
 214 921 203 924 194 932 c 1
 214 974 286 965 338 975 c 1
 384 981 416 1003 467 1004 c 1
313 880 m 1
 384 880 l 1
 519 732 493 424 619 267 c 1
 608 260 599 256 589 256 c 0
 526 256 484 396 454 455 c 1
 433 456 413 457 393 457 c 0
 303 457 229 442 172 408 c 1
 174 397 175 385 175 374 c 0
 175 293 130 214 124 149 c 1
 124 141 l 2
 124 117 133 95 133 78 c 0
 133 69 131 62 124 55 c 1
 118 52 112 51 107 51 c 0
 81 51 71 83 71 117 c 0
 71 155 84 196 101 196 c 1
 99 212 98 226 98 240 c 0
 98 297 113 340 124 385 c 1
 122 401 119 406 114 406 c 0
 102 406 82 378 54 378 c 0
 47 378 38 380 30 385 c 1
 30 390 l 2
 30 451 89 452 148 455 c 1
 171 629 245 752 313 880 c 1
348 810 m 0
 344 810 341 810 337 809 c 1
 271 726 228 618 195 502 c 1
 454 502 l 1
 455 511 455 520 455 529 c 0
 455 638 411 703 384 785 c 0
 380 800 368 810 348 810 c 0
EndSplineSet
Validated: 1
EndChar

StartChar: percent
Encoding: 138 37 137
Width: 598
LayerCount: 2
Fore
SplineSet
230 868 m 0
 254 868 280 862 306 846 c 1
 310 834 312 822 312 810 c 0
 312 715 196 629 118 627 c 1
 116 627 l 2
 85 627 56 650 39 663 c 1
 50 753 130 868 230 868 c 0
238 797 m 1
 186 796 132 759 124 700 c 1
 190 707 225 744 245 797 c 1
 238 797 l 1
528 775 m 0
 541 775 553 770 561 754 c 1
 522 675 443 613 379 542 c 0
 284 436 237 342 118 274 c 0
 112 271 85 252 62 252 c 0
 50 252 39 257 33 274 c 0
 31 279 30 284 30 289 c 0
 30 338 118 355 136 371 c 1
 248 462 380 684 501 766 c 0
 508 771 518 775 528 775 c 0
444 457 m 0
 500 456 568 393 568 340 c 0
 568 296 523 281 501 244 c 1
 391 244 l 1
 384 272 381 299 381 326 c 0
 381 364 387 402 397 438 c 1
 410 452 427 457 444 457 c 0
EndSplineSet
Validated: 1
EndChar

StartChar: underscore
Encoding: 139 95 138
Width: 606
LayerCount: 2
Fore
SplineSet
576 220 m 1
 531 156 430 136 316 136 c 0
 223 136 121 149 34 162 c 1
 31 173 30 185 30 198 c 0
 30 210 31 222 34 236 c 1
 67 245 109 248 153 248 c 0
 222 248 299 241 370 241 c 0
 424 241 475 245 514 259 c 0
 516 260 519 260 522 260 c 0
 541 260 568 240 576 220 c 1
EndSplineSet
Validated: 1
EndChar

StartChar: "di+AOgA-se" 
Encoding: 140 35 139
Width: 555
LayerCount: 2
Fore
SplineSet
492 881 m 1
 497 869 499 856 499 843 c 0
 499 777 449 701 449 640 c 0
 449 632 450 624 452 617 c 0
 462 577 502 582 525 544 c 1
 517 504 499 473 485 439 c 1
 369 421 360 295 300 221 c 1
 261 221 l 1
 256 232 255 243 255 253 c 0
 255 294 287 323 287 369 c 2
 287 373 l 1
 229 341 240 240 162 228 c 1
 149 240 144 253 144 267 c 0
 144 294 164 323 175 346 c 1
 164 352 149 354 132 354 c 0
 119 354 105 353 92 353 c 0
 71 353 52 355 43 366 c 1
 43 373 l 2
 43 462 201 394 201 483 c 2
 201 485 l 1
 195 488 187 489 180 489 c 0
 147 489 104 467 71 467 c 0
 53 467 38 473 30 492 c 1
 53 577 195 541 234 610 c 1
 256 665 266 733 294 782 c 1
 299 787 310 790 320 790 c 0
 330 790 341 787 346 782 c 1
 350 770 352 758 352 747 c 0
 352 704 327 663 327 615 c 2
 327 610 l 1
 391 650 394 807 439 887 c 1
 445 887 l 1
 467 887 l 2
 477 887 487 886 492 881 c 1
EndSplineSet
Validated: 513
EndChar

StartChar: n
Encoding: 141 241 140
Width: 452
LayerCount: 2
Fore
SplineSet
333 1162 m 0
 376 1161 422 1090 422 1015 c 0
 422 1000 420 985 416 971 c 1
 382 944 352 933 326 933 c 0
 267 933 223 987 174 1037 c 1
 101 1015 138 883 43 883 c 1
 37 904 34 925 34 944 c 0
 34 1023 80 1084 130 1117 c 1
 140 1118 150 1119 159 1119 c 0
 247 1119 278 1061 328 1022 c 1
 332 1029 333 1034 333 1040 c 0
 333 1069 290 1088 284 1117 c 1
 297 1149 315 1162 333 1162 c 0
116 752 m 1
 149 743 174 728 196 708 c 1
 235 718 275 727 321 730 c 1
 352 697 358 647 358 590 c 0
 358 557 356 521 356 485 c 0
 356 452 358 418 364 386 c 0
 374 338 401 293 401 260 c 0
 401 243 393 228 372 218 c 1
 235 259 304 506 262 642 c 1
 196 633 185 582 185 520 c 0
 185 489 188 456 188 423 c 0
 188 400 187 377 182 357 c 0
 172 312 122 242 62 242 c 0
 53 242 44 244 35 247 c 1
 31 255 30 263 30 270 c 0
 30 304 64 329 72 379 c 0
 75 399 76 420 76 442 c 0
 76 497 69 556 69 610 c 0
 69 670 78 723 116 752 c 1
EndSplineSet
Validated: 1
EndChar

StartChar: N
Encoding: 142 209 141
Width: 1261
LayerCount: 2
Fore
SplineSet
832 1505 m 0
 898 1503 970 1393 970 1276 c 0
 970 1252 967 1227 961 1205 c 1
 907 1163 862 1146 820 1146 c 0
 728 1146 658 1228 582 1308 c 1
 466 1274 524 1067 376 1067 c 1
 367 1100 363 1132 363 1162 c 0
 363 1286 436 1382 514 1434 c 1
 530 1436 545 1438 559 1438 c 0
 699 1438 745 1348 823 1286 c 1
 829 1296 831 1305 831 1314 c 0
 831 1359 763 1389 754 1434 c 1
 775 1484 804 1505 832 1505 c 0
163 998 m 1
 621 914 487 240 945 156 c 1
 1001 190 1014 266 1014 356 c 0
 1014 452 997 564 997 660 c 0
 997 784 1025 881 1149 881 c 0
 1159 881 1171 880 1185 878 c 1
 1219 844 1231 818 1231 798 c 0
 1231 747 1149 726 1125 638 c 1
 1141 522 1194 444 1194 314 c 0
 1194 284 1191 252 1185 216 c 1
 1074 207 1149 13 1065 -25 c 1
 549 1 484 478 283 818 c 1
 148 632 168 291 102 36 c 1
 51 126 30 258 30 398 c 0
 30 630 88 884 163 998 c 1
EndSplineSet
Validated: 1
EndChar

StartChar: plus
Encoding: 143 62 142
Width: 493
LayerCount: 2
Fore
SplineSet
463 673 m 1
 398 475 190 418 105 240 c 1
 98 239 92 238 86 238 c 0
 55 238 42 255 30 274 c 1
 54 398 150 467 246 548 c 0
 258 558 330 620 330 623 c 0
 329 659 211 698 180 715 c 0
 118 750 76 771 38 806 c 1
 38 815 l 2
 38 840 46 858 63 865 c 1
 212 850 351 752 463 673 c 1
EndSplineSet
Validated: 1
EndChar

StartChar: plus
Encoding: 144 60 143
Width: 491
LayerCount: 2
Fore
SplineSet
177 640 m 1
 209 464 375 423 461 301 c 1
 455 267 427 255 406 236 c 1
 250 322 124 438 30 585 c 1
 64 679 160 869 255 869 c 2
 259 869 l 1
 304 867 321 854 321 835 c 0
 321 785 199 691 177 640 c 1
EndSplineSet
Validated: 1
EndChar

StartChar: apostrophe
Encoding: 145 39 144
Width: 219
LayerCount: 2
Fore
SplineSet
30 979 m 1
 44 988 54 1002 83 1002 c 2
 89 1002 l 1
 133 975 189 862 189 782 c 0
 189 756 183 733 169 718 c 1
 118 718 l 1
 99 730 94 746 94 763 c 0
 94 778 98 793 98 807 c 0
 98 812 97 816 96 821 c 0
 84 874 30 926 30 979 c 1
EndSplineSet
Validated: 1
EndChar

StartChar: minucule
Encoding: 146 249 145
Width: 1104
LayerCount: 2
Fore
SplineSet
199 1009 m 0
 297 1009 408 956 504 930 c 0
 599 904 774 939 779 812 c 1
 577 872 242 798 190 1008 c 1
 193 1008 196 1009 199 1009 c 0
90 720 m 2
 91 720 l 2
 160 720 175 689 175 645 c 0
 175 611 166 569 166 526 c 0
 166 476 179 425 233 387 c 1
 253 385 271 384 289 384 c 0
 590 384 533 635 719 715 c 1
 734 514 809 400 965 400 c 0
 997 400 1034 406 1074 416 c 1
 1057 332 960 274 870 274 c 0
 796 274 727 314 712 412 c 1
 617 315 490 268 370 268 c 0
 191 268 30 375 30 575 c 0
 30 619 38 666 54 718 c 1
 67 720 79 720 90 720 c 2
EndSplineSet
Validated: 1
EndChar

StartChar: acircumflex
Encoding: 147 226 146
Width: 687
LayerCount: 2
Fore
SplineSet
296 1239 m 1
 466 1209 488 1030 559 901 c 1
 551 901 l 2
 416 901 436 1055 371 1126 c 1
 361 1128 351 1129 343 1129 c 0
 235 1129 282 973 174 973 c 0
 166 973 156 974 146 976 c 1
 161 1098 224 1173 296 1239 c 1
322 902 m 0
 375 902 429 899 483 898 c 1
 596 839 657 696 657 556 c 0
 657 385 565 219 360 219 c 0
 342 219 323 220 304 223 c 1
 288 257 280 291 280 322 c 0
 280 457 414 560 573 583 c 1
 557 711 420 810 280 810 c 0
 226 810 172 796 124 763 c 1
 118 744 116 728 116 715 c 0
 116 601 307 679 307 565 c 0
 307 557 306 548 304 538 c 1
 231 600 72 576 34 673 c 1
 31 690 30 706 30 721 c 0
 30 879 165 902 322 902 c 0
498 454 m 2
 497 454 l 2
 442 454 391 399 391 358 c 0
 391 336 404 318 438 313 c 1
 449 377 512 389 528 448 c 1
 518 452 508 454 498 454 c 2
EndSplineSet
Validated: 1
EndChar

StartChar: minuscule
Encoding: 148 255 147
Width: 668
LayerCount: 2
Fore
SplineSet
608 1053 m 1
 608 1040 l 2
 608 898 529 813 461 813 c 0
 434 813 410 826 392 853 c 1
 422 985 507 1031 608 1053 c 1
118 1021 m 0
 206 1020 243 986 243 949 c 0
 243 923 223 895 188 878 c 1
 105 902 107 969 76 1019 c 1
 91 1021 105 1021 118 1021 c 0
175 819 m 2
 197 819 220 814 246 802 c 1
 250 789 252 779 252 770 c 0
 252 741 229 735 200 735 c 0
 179 735 154 738 133 738 c 0
 127 738 121 738 116 737 c 1
 116 541 l 1
 125 474 203 476 246 443 c 1
 423 451 442 617 540 704 c 1
 627 690 638 601 638 501 c 0
 638 467 637 431 637 396 c 0
 637 379 637 362 638 345 c 1
 591 164 593 -67 475 -177 c 1
 347 -161 310 -53 310 91 c 0
 310 110 311 130 312 150 c 1
 359 282 545 273 545 452 c 0
 545 469 544 487 540 508 c 1
 531 519 522 523 513 523 c 0
 463 523 419 377 327 377 c 0
 322 377 317 377 312 378 c 1
 286 371 261 368 239 368 c 0
 96 368 30 496 30 616 c 0
 30 721 80 819 174 819 c 2
 175 819 l 2
475 280 m 1
 427 228 384 139 384 56 c 0
 384 5 401 -43 442 -79 c 1
 461 -26 541 117 541 206 c 0
 541 248 524 277 475 280 c 1
EndSplineSet
Validated: 1
EndChar

StartChar: Majuscule
Encoding: 149 376 148
Width: 608
LayerCount: 2
Fore
SplineSet
578 957 m 1
 578 951 l 2
 578 880 515 837 462 837 c 0
 440 837 421 844 407 857 c 1
 431 923 498 946 578 957 c 1
119 1054 m 0
 207 1053 244 1019 244 982 c 0
 244 956 224 928 189 911 c 1
 106 935 108 1002 77 1052 c 1
 92 1054 106 1054 119 1054 c 0
449 734 m 1
 477 725 506 720 536 720 c 0
 546 720 556 721 566 722 c 1
 560 702 554 684 548 664 c 1
 542 664 l 1
 461 613 396 545 263 545 c 0
 248 545 233 546 216 548 c 1
 168 441 207 247 77 222 c 1
 98 312 146 376 146 488 c 2
 146 501 l 1
 139 579 43 569 30 641 c 1
 51 720 40 832 100 873 c 1
 112 876 122 878 130 878 c 0
 191 878 168 794 216 780 c 1
 214 766 209 761 203 761 c 0
 184 761 151 811 146 827 c 1
 81 815 104 715 77 664 c 1
 100 617 168 594 240 594 c 0
 341 594 449 639 449 729 c 2
 449 734 l 1
EndSplineSet
Validated: 1
EndChar

StartChar: z
Encoding: 150 380 149
Width: 519
LayerCount: 2
Fore
SplineSet
279 969 m 2
 286 969 l 1
 299 954 308 936 308 911 c 0
 308 904 307 896 306 888 c 1
 292 876 264 871 236 871 c 0
 208 871 180 876 166 888 c 1
 178 936 208 969 279 969 c 2
236 786 m 1
 242 786 l 1
 322 783 359 726 396 706 c 1
 388 660 337 670 305 655 c 0
 256 632 221 585 191 547 c 1
 196 547 l 2
 245 547 300 578 354 578 c 0
 376 578 398 573 419 558 c 1
 451 521 489 488 489 419 c 0
 489 409 489 399 487 388 c 0
 468 254 344 109 197 109 c 0
 173 109 148 113 123 121 c 0
 89 133 30 176 30 226 c 0
 30 236 33 247 38 257 c 1
 102 224 153 180 216 180 c 0
 235 180 255 184 277 194 c 0
 339 221 411 312 411 397 c 0
 411 433 398 467 367 496 c 1
 352 496 l 2
 292 496 231 477 180 477 c 0
 146 477 117 485 95 513 c 1
 113 578 158 616 197 660 c 1
 181 665 162 666 144 666 c 2
 126 666 l 2
 93 666 61 668 61 701 c 0
 61 734 169 785 236 786 c 1
EndSplineSet
Validated: 1
EndChar

StartChar: Z
Encoding: 151 379 150
Width: 959
LayerCount: 2
Fore
SplineSet
457 1033 m 2
 469 1033 l 1
 491 1015 505 994 505 963 c 0
 505 955 504 945 502 935 c 1
 480 921 434 915 388 915 c 0
 342 915 296 921 274 935 c 1
 294 993 343 1033 457 1033 c 2
294 343 m 1
 339 316 388 307 440 307 c 0
 568 307 710 365 826 365 c 0
 864 365 898 359 929 343 c 1
 919 291 881 281 837 281 c 0
 808 281 776 285 747 285 c 0
 736 285 726 285 717 283 c 0
 610 264 487 223 386 223 c 0
 325 223 271 238 234 283 c 1
 234 286 l 2
 234 430 391 460 475 525 c 0
 562 592 663 636 717 737 c 1
 683 789 632 805 575 805 c 0
 502 805 420 779 354 767 c 0
 234 746 132 677 30 676 c 1
 37 701 45 727 53 752 c 1
 232 768 421 878 596 878 c 0
 659 878 720 864 778 827 c 1
 779 817 779 808 779 799 c 0
 779 581 589 533 445 434 c 0
 401 403 359 343 301 343 c 2
 294 343 l 1
EndSplineSet
Validated: 1
EndChar

StartChar: deux
Encoding: 152 58 151
Width: 261
Flags: HW
LayerCount: 2
Fore
SplineSet
180 643 m 0
 197 643 215 636 231 618 c 1
 231 586 209 576 206 548 c 1
 172 548 142 551 116 558 c 1
 117 608 146 642 180 643 c 0
117 418 m 0
 135 418 155 415 176 408 c 1
 176 322 l 1
 156 300 128 287 99 287 c 0
 75 287 50 297 30 317 c 1
 30 320 30 323 30 327 c 0
 30 386 66 417 117 418 c 0
EndSplineSet
Validated: 513
EndChar

StartChar: I
Encoding: 153 237 152
Width: 322
Flags: HW
LayerCount: 2
Fore
SplineSet
285 1113 m 1
 290 1101 292 1090 292 1079 c 0
 292 976 91 899 49 788 c 1
 36 811 30 833 30 852 c 0
 30 967 233 1021 285 1113 c 1
138 700 m 1
 186 675 201 636 201 589 c 0
 201 513 163 418 163 332 c 0
 163 316 164 301 167 286 c 1
 106 303 87 336 87 380 c 0
 87 454 142 557 142 655 c 0
 142 670 141 685 138 700 c 1
EndSplineSet
Validated: 513
EndChar

StartChar: I
Encoding: 154 205 153
Width: 517
Flags: HW
LayerCount: 2
Fore
SplineSet
459 1067 m 1
 461 1059 462 1053 462 1047 c 0
 462 1012 432 1006 397 1006 c 0
 382 1006 366 1007 351 1007 c 0
 321 1007 295 1004 288 981 c 1
 346 753 344 466 488 323 c 1
 446 299 396 290 345 290 c 0
 234 290 117 335 59 380 c 1
 71 406 103 413 141 413 c 0
 183 413 233 405 274 405 c 0
 290 405 304 406 316 409 c 1
 317 421 317 432 317 443 c 0
 317 645 230 760 230 962 c 0
 230 968 230 975 230 981 c 1
 223 1008 195 1013 161 1013 c 0
 141 1013 118 1011 97 1011 c 0
 66 1011 39 1015 30 1038 c 1
 50 1087 130 1104 218 1104 c 0
 312 1104 414 1085 459 1067 c 1
373 1553 m 1
 313 1422 218 1327 87 1267 c 1
 147 1398 242 1493 373 1553 c 1
EndSplineSet
Validated: 513
EndChar

StartChar: n
Encoding: 155 328 154
Width: 482
Flags: HW
LayerCount: 2
Fore
SplineSet
294 818 m 1
 435 748 342 443 453 342 c 1
 445 341 437 340 430 340 c 0
 270 340 351 583 294 686 c 1
 251 677 247 628 194 628 c 0
 185 628 174 630 162 633 c 1
 162 518 162 404 162 289 c 1
 89 307 73 409 73 520 c 0
 73 618 86 722 86 783 c 0
 86 797 85 809 83 818 c 1
 87 818 91 819 95 819 c 0
 153 819 152 760 162 712 c 1
 239 714 260 773 294 818 c 1
241 765 m 1
 115 824 108 1002 30 1109 c 1
 37 1110 43 1110 49 1110 c 0
 157 1110 158 1002 189 924 c 1
 282 946 259 1084 374 1084 c 0
 382 1084 390 1083 400 1082 c 1
 368 955 259 905 241 765 c 1
EndSplineSet
Validated: 513
EndChar

StartChar: N
Encoding: 156 327 155
Width: 1081
Flags: HW
LayerCount: 2
Fore
SplineSet
469 918 m 1
 325 986 316 1189 227 1311 c 1
 235 1312 242 1312 249 1312 c 0
 373 1312 372 1188 408 1100 c 1
 514 1126 488 1283 620 1283 c 0
 629 1283 639 1283 650 1281 c 1
 614 1136 490 1078 469 918 c 1
782 1134 m 1
 849 1008 862 826 872 643 c 1
 987 550 1051 407 1051 198 c 0
 1051 183 1051 168 1050 152 c 1
 614 162 470 465 158 599 c 1
 149 580 145 563 145 547 c 0
 145 466 247 423 247 379 c 0
 247 364 235 348 202 331 c 1
 93 350 30 495 30 626 c 0
 30 683 42 738 68 777 c 1
 449 697 576 363 916 242 c 1
 915 517 742 665 742 917 c 0
 742 981 754 1052 782 1134 c 1
EndSplineSet
Validated: 513
EndChar

StartChar: r
Encoding: 157 345 156
Width: 428
Flags: HW
LayerCount: 2
Fore
SplineSet
116 1098 m 1
 185 1072 191 984 201 900 c 1
 297 921 239 1099 356 1099 c 0
 361 1099 365 1098 370 1098 c 1
 353 964 291 876 257 759 c 1
 281 669 340 615 399 561 c 1
 389 539 373 530 357 530 c 0
 314 530 262 585 257 617 c 1
 192 563 141 453 141 338 c 0
 141 289 151 239 172 193 c 1
 52 262 30 534 30 681 c 0
 30 700 30 717 31 731 c 1
 89 705 116 649 116 566 c 0
 116 564 116 563 116 561 c 1
 168 591 186 636 186 687 c 0
 186 797 105 938 105 1042 c 0
 105 1062 109 1081 116 1098 c 1
EndSplineSet
Validated: 513
EndChar

StartChar: R
Encoding: 158 344 157
Width: 1075
Flags: HW
LayerCount: 2
Fore
SplineSet
607 709 m 1
 563 663 498 637 408 637 c 0
 386 637 362 639 336 642 c 1
 461 418 714 321 1046 304 c 1
 991 254 916 232 834 232 c 0
 584 232 268 440 268 715 c 0
 268 725 268 734 269 743 c 1
 278 743 287 744 297 744 c 0
 331 744 366 742 400 742 c 0
 458 742 511 747 539 777 c 1
 508 870 477 962 370 979 c 1
 166 955 143 713 143 483 c 0
 143 418 145 353 145 295 c 0
 145 232 143 177 134 135 c 1
 60 227 30 340 30 454 c 0
 30 743 223 1043 390 1043 c 0
 483 1043 568 950 607 709 c 1
134 1385 m 1
 246 1373 280 1284 336 1216 c 1
 421 1257 453 1352 579 1352 c 0
 588 1352 597 1352 607 1351 c 1
 588 1212 430 1211 370 1114 c 1
 249 1161 146 1228 134 1385 c 1
EndSplineSet
Validated: 513
EndChar

StartChar: t
Encoding: 159 357 158
Width: 537
Flags: HW
LayerCount: 2
Fore
SplineSet
242 1105 m 1
 248 1109 252 1111 255 1111 c 0
 259 1111 261 1107 261 1101 c 0
 261 1068 213 962 213 891 c 0
 213 882 214 874 216 866 c 1
 227 860 237 857 245 857 c 0
 324 857 333 1081 428 1105 c 1
 430 1091 430 1078 430 1065 c 0
 430 952 374 893 374 780 c 0
 374 774 375 767 375 760 c 1
 347 773 325 778 304 778 c 0
 264 778 233 758 189 733 c 1
 186 693 185 654 185 617 c 0
 185 460 213 332 295 256 c 1
 369 279 426 320 507 336 c 1
 462 262 404 201 284 201 c 0
 271 201 257 201 242 203 c 1
 84 284 188 627 30 707 c 1
 174 766 123 1021 242 1105 c 1
EndSplineSet
Validated: 513
EndChar

StartChar: T
Encoding: 160 356 159
Width: 1013
Flags: HW
LayerCount: 2
Fore
SplineSet
983 1101 m 1
 948 951 742 972 613 915 c 1
 611 887 610 859 610 831 c 0
 610 583 692 352 692 200 c 1
 509 308 573 663 533 915 c 1
 508 917 483 918 459 918 c 0
 289 918 163 874 30 836 c 1
 231 1090 702 971 983 1101 c 1
666 1498 m 1
 616 1354 500 1275 454 1127 c 1
 329 1170 267 1275 242 1418 c 1
 348 1418 330 1294 401 1259 c 1
 518 1310 518 1478 666 1498 c 1
EndSplineSet
Validated: 513
EndChar

StartChar: u
Encoding: 161 367 160
Width: 472
Flags: HW
LayerCount: 2
Fore
SplineSet
108 661 m 1
 143 647 155 626 155 598 c 0
 155 537 99 449 99 354 c 0
 99 334 102 313 108 293 c 1
 116 292 124 292 131 292 c 0
 318 292 277 520 415 569 c 1
 436 530 443 494 443 458 c 0
 443 387 417 317 415 231 c 1
 383 279 359 296 337 296 c 0
 284 296 241 199 113 199 c 0
 102 199 90 199 77 201 c 1
 43 248 30 302 30 359 c 0
 30 461 71 571 108 661 c 1
323 1122 m 1
 353 1050 376 971 384 876 c 1
 344 834 286 810 204 810 c 0
 184 810 162 812 138 815 c 1
 121 852 112 894 112 934 c 0
 112 1034 166 1125 284 1125 c 0
 296 1125 309 1124 323 1122 c 1
261 876 m 1
 257 890 255 901 255 910 c 0
 255 957 294 966 294 1012 c 0
 294 1018 293 1024 292 1030 c 1
 261 1030 231 1030 200 1030 c 1
 191 995 177 958 177 930 c 0
 177 898 194 876 253 876 c 0
 255 876 258 876 261 876 c 1
EndSplineSet
Validated: 513
EndChar

StartChar: U
Encoding: 162 366 161
Width: 612
Flags: HW
LayerCount: 2
Fore
SplineSet
271 1476 m 0
 304 1476 338 1460 365 1426 c 1
 365 1424 365 1422 365 1420 c 0
 365 1311 307 1231 222 1231 c 0
 196 1231 167 1238 137 1255 c 1
 133 1273 131 1290 131 1307 c 0
 131 1408 200 1476 270 1476 c 0
 271 1476 l 0
248 1401 m 0
 221 1401 200 1379 200 1352 c 0
 200 1325 221 1303 248 1303 c 0
 275 1303 297 1325 297 1352 c 0
 297 1379 275 1401 248 1401 c 0
80 1055 m 1
 110 1014 117 940 117 850 c 0
 117 759 109 653 109 552 c 0
 109 435 120 326 166 258 c 1
 464 317 509 675 509 975 c 0
 509 1002 509 1029 508 1055 c 1
 558 965 582 855 582 745 c 0
 582 474 433 200 141 200 c 0
 131 200 120 200 109 201 c 1
 56 331 29 504 29 675 c 0
 29 809 46 943 80 1055 c 1
EndSplineSet
Validated: 513
EndChar

StartChar: u
Encoding: 163 250 162
Width: 886
Flags: HW
LayerCount: 2
Fore
SplineSet
82 699 m 1
 127 687 136 638 136 581 c 0
 136 547 133 510 133 476 c 0
 133 423 140 376 179 361 c 1
 199 357 217 356 233 356 c 0
 458 356 347 692 566 699 c 1
 563 657 561 616 561 578 c 0
 561 420 598 299 756 299 c 0
 785 299 818 303 856 312 c 1
 797 225 731 197 659 197 c 0
 525 197 373 295 219 295 c 0
 174 295 128 287 82 264 c 1
 60 332 30 438 30 534 c 0
 30 598 44 658 82 699 c 1
566 1135 m 1
 542 957 405 893 202 893 c 0
 195 893 187 893 179 893 c 1
 219 1063 412 1079 566 1135 c 1
EndSplineSet
Validated: 513
EndChar

StartChar: U
Encoding: 164 218 163
Width: 1138
Flags: HW
LayerCount: 2
Fore
SplineSet
57 1115 m 1
 158 1084 181 999 181 895 c 0
 181 807 165 706 165 612 c 0
 165 479 198 361 358 317 c 1
 770 359 808 621 808 907 c 0
 808 927 808 947 808 967 c 1
 927 919 952 838 952 751 c 0
 952 687 939 620 939 558 c 0
 939 466 967 385 1108 346 c 1
 1063 333 1027 328 997 328 c 0
 920 328 877 362 808 405 c 1
 676 325 599 213 358 198 c 1
 91 315 30 524 30 760 c 0
 30 874 44 995 57 1115 c 1
808 1500 m 1
 759 1351 609 1263 358 1234 c 1
 446 1359 596 1448 808 1500 c 1
EndSplineSet
Validated: 513
EndChar

StartChar: d
Encoding: 165 271 164
Width: 636
Flags: HW
LayerCount: 2
Fore
SplineSet
570 1307 m 1
 589 1257 606 1157 606 1061 c 0
 606 948 583 840 513 823 c 1
 513 1003 532 1165 570 1307 c 1
314 1335 m 1
 473 1134 390 691 485 426 c 1
 512 442 514 483 557 483 c 0
 561 483 565 483 570 482 c 1
 545 412 544 319 456 312 c 1
 408 368 424 487 371 539 c 1
 228 459 266 198 44 198 c 0
 39 198 35 198 30 198 c 1
 30 204 30 211 30 217 c 0
 30 622 334 806 334 1170 c 0
 334 1221 328 1276 314 1335 c 1
115 284 m 1
 179 365 278 506 278 640 c 0
 278 674 272 707 258 738 c 1
 201 643 103 486 103 356 c 0
 103 331 107 306 115 284 c 1
EndSplineSet
Validated: 513
EndChar

StartChar: D
Encoding: 166 270 165
Width: 922
Flags: HW
LayerCount: 2
Fore
SplineSet
391 1493 m 1
 505 1486 451 1313 490 1231 c 1
 602 1272 565 1463 718 1463 c 0
 729 1463 740 1462 752 1460 c 1
 727 1300 590 1250 555 1099 c 1
 796 1043 893 897 893 738 c 0
 893 478 636 183 333 183 c 0
 256 183 176 202 96 246 c 1
 136 235 177 230 218 230 c 0
 512 230 791 500 791 730 c 0
 791 869 689 994 424 1034 c 1
 348 877 325 667 325 435 c 0
 325 405 325 375 326 345 c 1
 247 365 222 418 222 487 c 0
 222 602 293 759 293 858 c 0
 293 862 293 866 293 870 c 1
 287 882 278 886 267 886 c 0
 229 886 165 826 86 826 c 0
 68 826 49 829 30 837 c 1
 30 842 30 846 30 850 c 0
 30 1066 211 1099 426 1099 c 0
 436 1099 447 1099 457 1099 c 1
 424 1192 385 1279 385 1406 c 0
 385 1433 387 1462 391 1493 c 1
EndSplineSet
Validated: 513
EndChar

StartChar: "O barr+AOkA minuscule" 
Encoding: 167 248 166
Width: 878
Flags: HW
LayerCount: 2
Fore
SplineSet
806 1059 m 1
 836 1048 848 1034 848 1017 c 0
 848 957 698 870 662 829 c 1
 717 770 740 701 740 632 c 0
 740 425 533 211 324 211 c 0
 293 211 261 216 231 226 c 1
 125 218 179 49 64 49 c 0
 54 49 43 50 30 53 c 1
 215 314 138 773 576 829 c 1
 680 878 713 999 806 1059 c 1
260 398 m 1
 272 514 442 588 442 677 c 0
 442 689 439 701 432 714 c 1
 379 644 247 543 247 447 c 0
 247 430 251 414 260 398 c 1
260 283 m 1
 274 281 288 280 302 280 c 0
 476 280 634 420 634 568 c 0
 634 617 617 667 576 714 c 1
 492 549 349 443 260 283 c 1
EndSplineSet
Validated: 513
EndChar

StartChar: "O barr+AOkA majuscule" 
Encoding: 168 216 167
Width: 1112
Flags: HW
LayerCount: 2
Fore
SplineSet
506 1060 m 1
 514 1050 529 1047 548 1047 c 0
 592 1047 661 1066 726 1066 c 0
 745 1066 764 1065 782 1060 c 1
 920 1130 935 1324 1082 1386 c 1
 1042 1250 969 1148 882 1060 c 1
 999 968 1048 862 1048 757 c 0
 1048 476 701 201 391 201 c 0
 363 201 334 203 306 208 c 1
 198 140 171 -8 30 -42 c 1
 51 95 172 132 230 233 c 1
 191 319 172 416 172 515 c 0
 172 821 348 1136 611 1136 c 0
 617 1136 624 1135 631 1135 c 1
 614 1086 564 1068 506 1060 c 1
381 935 m 1
 309 847 228 673 228 508 c 0
 228 437 243 368 281 308 c 1
 438 544 614 760 757 1010 c 1
 743 1011 729 1012 716 1012 c 0
 579 1012 495 958 381 935 c 1
381 258 m 1
 649 267 989 501 989 734 c 0
 989 812 951 891 857 960 c 1
 670 770 448 485 381 258 c 1
EndSplineSet
Validated: 513
EndChar

StartChar: C
Encoding: 169 269 168
Width: 501
Flags: HW
LayerCount: 2
Fore
SplineSet
438 709 m 1
 440 692 441 677 441 663 c 0
 441 612 428 575 406 545 c 1
 381 605 349 629 315 629 c 0
 220 629 114 437 110 315 c 1
 140 289 171 279 202 279 c 0
 295 279 393 367 471 380 c 1
 469 185 264 193 77 183 c 1
 44 228 30 283 30 342 c 0
 30 522 169 729 343 729 c 0
 374 729 406 723 438 709 c 1
110 1135 m 1
 190 1105 197 1004 209 906 c 1
 316 907 287 1043 394 1043 c 0
 407 1043 421 1041 438 1037 c 1
 376 913 322 782 176 742 c 1
 157 857 107 942 107 1077 c 0
 107 1095 108 1115 110 1135 c 1
EndSplineSet
Validated: 513
EndChar

StartChar: C
Encoding: 170 268 169
Width: 1043
Flags: HW
LayerCount: 2
Fore
SplineSet
994 1097 m 1
 1007 1073 1013 1048 1013 1022 c 0
 1013 923 919 821 728 821 c 0
 713 821 698 822 683 823 c 1
 683 825 683 827 683 829 c 0
 683 922 864 891 864 984 c 0
 864 990 863 998 861 1006 c 1
 824 1013 787 1016 751 1016 c 0
 421 1016 170 735 170 480 c 0
 170 407 191 336 237 274 c 1
 240 274 243 274 247 274 c 0
 615 274 817 387 950 548 c 1
 957 531 960 514 960 497 c 0
 960 326 616 187 359 187 c 0
 296 187 239 195 193 213 c 0
 80 256 30 349 30 459 c 0
 30 737 349 1129 780 1129 c 0
 849 1129 920 1119 994 1097 c 1
861 1524 m 1
 706 1396 660 1194 415 1128 c 1
 347 1224 267 1310 237 1432 c 1
 240 1432 243 1432 246 1432 c 0
 406 1432 383 1307 460 1250 c 1
 601 1332 582 1524 843 1524 c 0
 849 1524 855 1524 861 1524 c 1
EndSplineSet
Validated: 513
EndChar

StartChar: ae
Encoding: 171 230 170
Width: 1105
Flags: HW
LayerCount: 2
Fore
SplineSet
749 914 m 1
 778 887 783 835 783 778 c 0
 783 747 781 713 781 682 c 0
 781 672 782 662 782 653 c 1
 714 570 554 582 554 432 c 0
 554 430 554 427 554 425 c 1
 581 410 608 403 635 403 c 0
 782 403 928 594 1042 594 c 0
 1054 594 1065 592 1076 588 c 1
 1003 302 538 408 456 131 c 1
 453 131 450 131 446 131 c 0
 329 131 247 166 162 197 c 1
 170 385 321 428 390 555 c 1
 357 598 337 654 293 686 c 1
 291 686 289 686 288 686 c 0
 148 686 168 527 97 458 c 1
 49 492 30 531 30 571 c 0
 30 690 204 818 293 849 c 1
 305 850 316 851 327 851 c 0
 386 851 424 830 424 770 c 0
 424 764 424 758 423 751 c 1
 524 794 541 921 686 921 c 0
 705 921 725 919 749 914 c 1
521 588 m 1
 567 656 692 645 692 759 c 0
 692 775 690 794 684 816 c 1
 682 816 680 816 678 816 c 0
 590 816 493 732 493 654 c 0
 493 631 502 608 521 588 c 1
293 262 m 1
 330 254 349 226 395 226 c 0
 403 226 412 227 423 229 c 1
 422 240 421 251 421 263 c 0
 421 269 422 276 422 283 c 0
 422 319 419 353 390 360 c 1
 390 357 391 353 391 350 c 0
 391 288 297 321 293 262 c 1
EndSplineSet
Validated: 513
EndChar

StartChar: A
Encoding: 172 198 171
Width: 1185
Flags: HW
LayerCount: 2
Fore
SplineSet
902 1169 m 0
 907 1169 912 1169 917 1169 c 0
 1013 1169 1103 1150 1156 1098 c 1
 1153 1055 1123 1042 1081 1042 c 0
 1021 1042 935 1067 861 1067 c 0
 815 1067 773 1057 745 1024 c 1
 698 970 659 908 633 834 c 1
 629 764 618 686 605 608 c 1
 616 604 633 603 655 603 c 0
 727 603 849 619 954 619 c 0
 986 619 1017 617 1044 613 c 1
 917 552 771 509 589 502 c 1
 574 409 561 319 559 240 c 1
 594 236 627 234 659 234 c 0
 813 234 922 280 1044 314 c 1
 1011 127 728 188 566 130 c 0
 566 129 566 129 566 128 c 1
 559 127 551 126 545 126 c 0
 368 126 418 565 227 565 c 0
 217 565 207 563 196 561 c 1
 204 624 222 649 247 649 c 0
 320 649 446 422 481 350 c 1
 481 355 481 359 481 364 c 0
 481 452 488 544 488 632 c 0
 488 757 474 875 405 964 c 1
 196 911 135 521 56 370 c 1
 38 404 30 443 30 484 c 0
 30 731 317 1074 451 1135 c 1
 489 1134 519 1126 544 1112 c 1
 636 1135 774 1167 902 1169 c 0
EndSplineSet
Validated: 513
EndChar

StartChar: e
Encoding: 173 283 172
Width: 634
Flags: HW
LayerCount: 2
Fore
SplineSet
443 845 m 1
 458 808 465 773 465 739 c 0
 465 569 289 443 119 400 c 1
 163 319 235 292 315 292 c 0
 410 292 517 329 605 360 c 1
 505 232 406 182 320 182 c 0
 159 182 42 356 42 526 c 0
 42 687 148 845 424 845 c 0
 430 845 437 845 443 845 c 1
119 522 m 1
 260 529 323 615 362 724 c 1
 347 727 333 728 320 728 c 0
 184 728 192 585 119 522 c 1
362 1331 m 1
 402 1331 443 1331 483 1331 c 1
 479 1086 322 945 194 945 c 0
 105 945 30 1013 30 1160 c 0
 30 1187 33 1217 38 1250 c 1
 128 1218 139 1109 200 1048 c 1
 298 1099 331 1213 362 1331 c 1
EndSplineSet
Validated: 513
EndChar

StartChar: E
Encoding: 174 282 173
Width: 1028
Flags: HW
LayerCount: 2
Fore
SplineSet
926 961 m 1
 921 961 916 961 911 961 c 0
 814 961 696 969 584 969 c 0
 382 969 200 942 200 793 c 0
 200 752 214 701 245 639 c 1
 274 632 302 630 329 630 c 0
 435 630 527 670 608 670 c 0
 645 670 679 662 711 639 c 1
 633 526 418 549 245 531 c 1
 240 509 238 489 238 472 c 0
 238 387 282 346 282 262 c 0
 282 256 281 250 281 244 c 1
 415 255 642 391 813 391 c 0
 891 391 957 363 998 280 c 1
 725 242 464 193 209 137 c 1
 185 340 133 515 30 639 c 1
 66 639 102 639 138 639 c 1
 111 703 99 760 99 809 c 0
 99 1013 307 1093 518 1093 c 0
 688 1093 859 1041 926 961 c 1
245 1499 m 1
 356 1491 357 1372 389 1284 c 1
 480 1332 498 1490 595 1490 c 0
 617 1490 643 1482 675 1463 c 1
 615 1344 493 1286 460 1140 c 1
 331 1188 243 1276 243 1451 c 0
 243 1467 244 1482 245 1499 c 1
EndSplineSet
Validated: 513
EndChar

StartChar: uni00df
Encoding: 175 223 174
Width: 726
Flags: HW
LayerCount: 2
Fore
SplineSet
467 924 m 1
 466 840 469 752 385 752 c 0
 384 752 382 752 381 752 c 1
 475 645 678 639 695 467 c 0
 696 460 696 454 696 447 c 0
 696 328 595 202 481 202 c 0
 429 202 373 229 324 296 c 1
 359 291 390 289 417 289 c 0
 536 289 583 335 583 399 c 0
 583 527 396 724 239 752 c 1
 246 831 344 817 381 866 c 1
 383 877 383 886 383 895 c 0
 383 962 340 986 296 1009 c 1
 157 934 117 746 117 535 c 0
 117 312 162 63 182 -103 c 1
 77 -17 30 200 30 425 c 0
 30 739 122 1066 277 1066 c 0
 333 1066 396 1024 467 924 c 1
EndSplineSet
Validated: 513
EndChar

StartChar: t
Encoding: 176 539 175
Width: 431
Flags: HW
LayerCount: 2
Fore
SplineSet
215 222 m 1
 219 223 223 223 227 223 c 0
 265 223 277 186 277 143 c 0
 277 85 256 16 243 1 c 1
 204 29 192 69 192 108 c 0
 192 151 207 195 215 222 c 1
77 1133 m 1
 125 1128 139 1098 139 1058 c 0
 139 997 104 914 104 867 c 0
 104 863 105 860 105 857 c 1
 109 854 114 852 120 852 c 0
 166 852 278 934 326 967 c 1
 336 952 340 938 340 925 c 0
 340 842 176 787 105 746 c 1
 102 717 101 690 101 664 c 0
 101 543 130 451 160 360 c 1
 181 358 202 357 222 357 c 0
 304 357 366 377 381 443 c 1
 395 424 401 406 401 388 c 0
 401 321 306 269 201 269 c 0
 178 269 155 272 132 277 c 1
 54 373 30 503 30 645 c 0
 30 804 60 978 77 1133 c 1
EndSplineSet
Validated: 513
EndChar

StartChar: T
Encoding: 177 538 176
Width: 1178
Flags: HW
LayerCount: 2
Fore
SplineSet
713 279 m 1
 699 319 686 333 673 333 c 0
 640 333 606 247 539 247 c 0
 535 247 531 247 527 248 c 1
 519 442 491 618 491 821 c 0
 491 866 493 913 496 962 c 1
 409 959 257 868 148 868 c 0
 92 868 48 891 30 962 c 1
 45 961 60 960 75 960 c 0
 402 960 663 1196 942 1196 c 0
 1009 1196 1078 1182 1148 1148 c 1
 1074 984 795 1025 589 993 c 1
 589 807 589 620 589 434 c 1
 659 380 810 407 837 310 c 1
 721 126 561 -14 403 -156 c 1
 402 -151 402 -147 402 -142 c 0
 402 -5 626 145 713 279 c 1
EndSplineSet
Validated: 513
EndChar

StartChar: s
Encoding: 178 537 177
Width: 556
Flags: HW
LayerCount: 2
Fore
SplineSet
523 815 m 1
 525 806 526 797 526 790 c 0
 526 748 491 742 448 742 c 0
 430 742 409 743 390 743 c 0
 355 743 324 738 315 711 c 1
 359 611 397 520 397 436 c 0
 397 360 366 290 280 226 c 1
 314 162 355 106 355 8 c 0
 355 -10 353 -30 350 -51 c 1
 275 128 30 251 30 443 c 0
 30 463 33 482 38 503 c 1
 48 506 57 507 65 507 c 0
 150 507 79 352 142 330 c 1
 188 365 269 364 315 399 c 1
 317 410 317 420 317 429 c 0
 317 544 211 551 211 664 c 0
 211 668 211 673 211 677 c 1
 211 678 211 679 211 680 c 0
 211 774 321 851 421 851 c 0
 458 851 495 840 523 815 c 1
EndSplineSet
Validated: 513
EndChar

StartChar: S
Encoding: 179 536 178
Width: 500
Flags: HW
LayerCount: 2
Fore
SplineSet
354 1109 m 1
 363 1082 378 1034 378 993 c 0
 378 956 365 926 321 926 c 0
 317 926 313 927 309 927 c 1
 321 950 326 970 326 988 c 0
 326 1029 300 1059 263 1087 c 1
 204 1055 134 1033 126 950 c 1
 236 821 471 657 471 495 c 0
 471 425 427 355 309 289 c 1
 334 273 346 241 346 208 c 0
 346 155 316 96 263 84 c 1
 263 88 263 91 263 95 c 0
 263 148 290 175 290 228 c 0
 290 239 289 252 286 266 c 1
 282 266 278 266 275 266 c 0
 222 266 196 240 143 240 c 0
 131 240 118 241 104 244 c 1
 70 287 30 323 30 399 c 0
 30 414 32 430 35 449 c 1
 38 449 40 449 43 449 c 0
 109 449 75 349 104 312 c 1
 119 310 133 310 147 310 c 0
 307 310 363 415 423 517 c 1
 335 631 87 858 87 996 c 0
 87 1064 147 1110 316 1110 c 0
 328 1110 341 1109 354 1109 c 1
EndSplineSet
Validated: 513
EndChar

StartChar: abreve
Encoding: 180 259 179
Width: 569
Flags: HW
LayerCount: 2
Fore
SplineSet
379 608 m 1
 345 639 316 651 290 651 c 0
 189 651 134 466 32 454 c 1
 31 466 30 477 30 487 c 0
 30 619 118 660 186 724 c 1
 110 732 62 849 62 958 c 0
 62 1054 99 1145 186 1149 c 1
 191 1126 193 1104 193 1083 c 0
 193 1006 164 944 164 895 c 0
 164 874 170 856 186 840 c 1
 303 862 376 966 376 1085 c 0
 376 1131 365 1179 341 1226 c 1
 355 1230 367 1232 377 1232 c 0
 457 1232 429 1125 495 1111 c 1
 472 966 417 854 302 802 c 1
 387 746 460 676 534 608 c 1
 537 584 539 561 539 539 c 0
 539 349 415 243 277 243 c 0
 221 243 162 261 109 299 c 1
 105 320 104 340 104 358 c 0
 104 533 266 545 379 608 c 1
186 377 m 1
 209 353 248 339 285 339 c 0
 335 339 382 365 382 426 c 0
 382 434 381 444 379 454 c 1
 358 455 337 456 318 456 c 0
 247 456 191 443 186 377 c 1
EndSplineSet
Validated: 513
EndChar

StartChar: A
Encoding: 181 258 180
Width: 821
Flags: HW
LayerCount: 2
Fore
SplineSet
325 1117 m 1
 511 1066 472 792 532 615 c 1
 591 503 791 458 791 319 c 0
 791 293 784 264 768 231 c 1
 753 229 739 228 725 228 c 0
 533 228 526 416 444 527 c 1
 433 529 424 529 415 529 c 0
 334 529 317 466 236 466 c 0
 227 466 218 466 207 468 c 1
 211 571 302 587 408 587 c 0
 420 587 432 586 444 586 c 1
 441 740 413 870 355 970 c 1
 142 828 206 409 30 231 c 1
 30 232 30 234 30 235 c 0
 30 628 177 873 325 1117 c 1
709 320 m 1
 705 395 666 434 591 438 c 1
 595 363 634 324 709 320 c 1
384 1442 m 1
 387 1442 389 1442 392 1442 c 0
 498 1442 544 1383 562 1295 c 1
 548 1179 450 1145 319 1145 c 0
 302 1145 284 1146 266 1147 c 1
 247 1188 208 1239 208 1289 c 0
 208 1311 216 1333 237 1354 c 1
 274 1313 323 1229 392 1229 c 0
 416 1229 443 1239 473 1265 c 1
 474 1272 474 1278 474 1283 c 0
 474 1361 383 1346 383 1424 c 0
 383 1429 383 1435 384 1442 c 1
EndSplineSet
Validated: 513
EndChar

StartChar: Le
Encoding: 182 165 181
Width: 1293
Flags: HW
LayerCount: 2
Fore
SplineSet
1204 1151 m 1
 1153 991 1001 932 933 790 c 1
 957 764 984 755 1013 755 c 0
 1076 755 1148 795 1221 795 c 0
 1235 795 1250 794 1264 790 c 1
 1234 620 932 721 843 609 c 1
 858 582 893 575 935 575 c 0
 971 575 1012 580 1048 580 c 0
 1102 580 1146 569 1146 515 c 0
 1146 507 1145 498 1143 489 c 1
 1109 490 1075 491 1041 491 c 0
 954 491 873 485 812 459 c 1
 812 389 812 318 812 248 c 1
 807 248 802 247 798 247 c 0
 742 247 726 276 726 313 c 0
 726 350 742 395 752 429 c 1
 740 430 727 430 713 430 c 0
 673 430 630 428 590 428 c 0
 513 428 445 437 421 489 c 1
 422 528 443 540 476 540 c 0
 529 540 611 508 686 508 c 0
 709 508 731 511 752 519 c 1
 739 592 694 613 635 613 c 0
 552 613 440 571 350 571 c 0
 307 571 269 581 241 609 c 1
 241 610 241 612 241 613 c 0
 241 664 279 676 330 676 c 0
 381 676 443 664 493 664 c 0
 512 664 528 666 542 670 c 1
 387 806 125 835 30 1031 c 1
 240 1020 469 768 722 700 c 1
 958 775 919 1125 1204 1151 c 1
EndSplineSet
Validated: 513
EndChar

StartChar: bitcoin
Encoding: 183 579 182
Width: 1185
Flags: HW
LayerCount: 2
Fore
SplineSet
553 1118 m 1
 768 1118 l 1
 784 1071 860 975 860 899 c 0
 860 867 847 838 811 818 c 1
 872 722 1043 736 1110 646 c 1
 1105 627 1102 611 1102 598 c 0
 1102 533 1155 521 1155 457 c 0
 1155 449 1155 441 1153 432 c 1
 1140 342 963 250 820 250 c 0
 729 250 651 288 639 389 c 1
 693 365 764 348 830 348 c 0
 924 348 1009 382 1025 475 c 1
 1025 479 1025 483 1025 486 c 0
 1025 629 903 649 760 649 c 0
 707 649 650 646 596 646 c 1
 612 787 755 832 755 940 c 0
 755 966 746 996 725 1032 c 1
 723 1032 l 0
 503 1032 435 858 435 664 c 0
 435 619 439 573 445 528 c 1
 456 528 466 527 476 527 c 0
 551 527 616 538 692 538 c 0
 723 538 756 536 792 531 c 1
 783 475 722 462 640 462 c 0
 585 462 519 468 454 470 c 1
 468 392 489 320 511 261 c 1
 418 294 366 372 344 469 c 1
 291 467 238 462 190 462 c 0
 122 462 65 471 30 504 c 1
 59 537 111 547 172 547 c 0
 222 547 278 540 333 535 c 1
 331 554 330 573 330 592 c 0
 330 808 434 1057 553 1118 c 1
EndSplineSet
Validated: 1
EndChar
